<?xml version="1.0" standalone="no"?>
<!DOCTYPE svg PUBLIC "-//W3C//DTD SVG 1.1//EN" "http://www.w3.org/Graphics/SVG/1.1/DTD/svg11.dtd" >
<svg xmlns="http://www.w3.org/2000/svg">
<metadata>
This is a custom SVG webfont generated by Font Squirrel.
Copyright   : c Copyright 2007 The Font Bureau Inc Designed by Cyrus Highsmith All Rights Reserved
Designer    : Cyrus Highsmith
Foundry     : The Font Bureau Inc
Foundry URL : httpwwwfontbureaucom
</metadata>
<defs>
<font id="ScoutRegularItalic" horiz-adv-x="1103" >
<font-face units-per-em="2048" ascent="1638" descent="-410" />
<missing-glyph horiz-adv-x="389" />
<glyph unicode=" "  horiz-adv-x="389" />
<glyph unicode="&#x09;" horiz-adv-x="389" />
<glyph unicode="&#xa0;" horiz-adv-x="389" />
<glyph unicode="!" horiz-adv-x="559" d="M68 0l36 211h201l-37 -211h-200zM158 360l98 709l37 213h201l-37 -213l-150 -709h-149z" />
<glyph unicode="&#x22;" horiz-adv-x="899" d="M229 774l27 299l37 209h190l-37 -209l-75 -299h-142zM582 774l26 299l37 209h191l-37 -209l-78 -299h-139z" />
<glyph unicode="#" horiz-adv-x="1243" d="M76 393l26 158h215l50 186h-230l27 158h244l102 387h172l-102 -387h217l102 387h174l-102 -387h200l-26 -158h-215l-49 -186h229l-27 -158h-243l-105 -393h-174l105 393h-217l-105 -393h-172l104 393h-200zM483 547h230l49 194h-227z" />
<glyph unicode="$" horiz-adv-x="1118" d="M20 342l191 35q10 -92 51 -142.5t131 -68.5l78 434q-135 53 -211 122t-76 189q0 172 108.5 270.5t293.5 104.5l35 195h174l-37 -209q262 -49 286 -275l-198 -45q-14 127 -121 156l-68 -385q143 -57 219 -128t76 -196q0 -109 -37.5 -189.5t-102 -123.5t-133.5 -63.5 t-147 -24.5l-38 -236h-175l41 242q-320 49 -340 338zM373 938q0 -92 131 -154l57 336q-188 -12 -188 -182zM559 160q207 23 207 215q0 100 -141 164z" />
<glyph unicode="%" horiz-adv-x="1642" d="M100 784q0 55 21 160q31 172 106.5 260t216.5 88q281 0 281 -266q0 -47 -23 -172q-68 -348 -333 -348q-137 0 -203 75.5t-66 202.5zM252 797q0 -147 127 -148q133 0 172 215q18 109 18 146q0 137 -131 137q-68 0 -104.5 -47t-61.5 -168q-20 -94 -20 -135zM340 0l788 1282 h179l-789 -1282h-178zM928 272q0 49 18 160q31 172 107.5 259t216.5 87q281 0 280 -266q0 -61 -22 -172q-66 -348 -334 -348q-137 0 -201.5 75.5t-64.5 204.5zM1079 283q0 -147 125 -148q133 0 172 217q18 104 19 144q0 72 -31 104.5t-100 32.5q-68 0 -105 -47t-61 -166 q-19 -88 -19 -137z" />
<glyph unicode="&#x26;" horiz-adv-x="1206" d="M-20 287q0 174 97 278.5t275 192.5q-72 129 -71 223q0 143 79.5 227t225 84t212 -64.5t66.5 -166.5q0 -121 -67.5 -200t-196.5 -154l170 -263q37 82 102 287l177 -18q-92 -289 -175 -430l183 -283h-219l-82 127q-141 -135 -365 -135q-411 0 -411 295zM176 315 q0 -160 236 -159q160 0 254 108l-234 363q-127 -72 -191.5 -141t-64.5 -171zM463 997q0 -63 59 -166q164 96 164 205q0 100 -104 101q-63 0 -91 -41.5t-28 -98.5z" />
<glyph unicode="'" horiz-adv-x="552" d="M229 774l27 299l37 209h194l-36 -209l-78 -299h-144z" />
<glyph unicode="(" horiz-adv-x="663" d="M78 485q53 303 182 489.5t324 307.5l82 -135q-150 -109 -251.5 -263.5t-146.5 -414.5q-37 -184 -20.5 -326.5t56.5 -230.5t114 -166l-127 -127q-315 293 -213 866z" />
<glyph unicode=")" horiz-adv-x="663" d="M-66 -246q150 109 251.5 263.5t146.5 414.5q37 184 20.5 326.5t-56.5 230.5t-114 166l127 127q315 -293 213 -866q-53 -303 -182 -489.5t-324 -307.5z" />
<glyph unicode="*" horiz-adv-x="845" d="M86 815l270 98l-221 189l109 117l182 -197l35 268l153 -28l-57 -265l240 123l59 -145l-270 -101l221 -186l-107 -117l-184 197l-35 -268l-153 26l57 265l-238 -121z" />
<glyph unicode="+" horiz-adv-x="1044" d="M104 555v162h334v342h180v-342h336v-162h-336v-342h-180v342h-334z" />
<glyph unicode="," horiz-adv-x="425" d="M-29 -199l17 99q55 6 74.5 25.5t29.5 74.5h-86l37 211h190l-36 -211q-18 -104 -63.5 -149.5t-162.5 -49.5z" />
<glyph unicode="-" horiz-adv-x="737" d="M25 455l30 163h625l-31 -163h-624z" />
<glyph unicode="." horiz-adv-x="425" d="M6 0l37 211h190l-36 -211h-191z" />
<glyph unicode="/" horiz-adv-x="731" d="M-125 0l789 1282h194l-788 -1282h-195z" />
<glyph unicode="0" horiz-adv-x="1167" d="M92 436q0 98 31 281q51 291 170 433t362 142q233 0 331.5 -109.5t98.5 -308.5q0 -109 -36 -313q-49 -281 -175 -425t-358 -144q-424 0 -424 444zM287 440q0 -281 237 -280q141 0 216 97t116 318q35 188 35 289q0 129 -58.5 192.5t-197.5 63.5t-207 -97t-111 -325 q-30 -160 -30 -258z" />
<glyph unicode="1" horiz-adv-x="813" d="M174 1110l31 172h485l-225 -1282h-191l197 1110h-297z" />
<glyph unicode="2" horiz-adv-x="1083" d="M-8 0l22 121q37 209 144.5 321.5t390.5 243.5q180 86 231 143.5t51 157.5q0 133 -221 133q-186 0 -252 -166l-194 27q51 147 170 229t289 82q406 0 405 -278q0 -178 -87 -272.5t-327 -206.5q-225 -109 -295.5 -179.5t-99.5 -185.5h662l-29 -170h-860z" />
<glyph unicode="3" d="M47 346l201 27q-4 -123 54 -168t212 -45q109 0 168 48t82 185q20 113 -44.5 162t-217.5 49h-131l30 162h209q100 0 148.5 35t68.5 135q20 86 -32 135t-191 49q-100 0 -156.5 -40t-91.5 -115l-188 39q55 135 172 211.5t287 76.5q238 0 332 -96t65 -258q-33 -197 -211 -256 q74 -25 118 -103.5t25 -203.5q-55 -387 -456 -383q-240 0 -348.5 91t-104.5 263z" />
<glyph unicode="4" horiz-adv-x="1155" d="M12 297l29 170l739 815h197l-143 -815h215l-29 -170h-215l-53 -297h-185l51 297h-606zM254 465h393l96 545z" />
<glyph unicode="5" horiz-adv-x="1101" d="M47 334l203 26q0 -121 59.5 -160.5t198.5 -39.5q109 0 172 58t88 192q16 82 16 129q0 98 -56 144t-181 46q-139 0 -228 -92l-167 49l163 596h715l-31 -172h-553l-77 -283q92 68 243 68q371 0 371 -330q0 -55 -22 -174q-72 -399 -461 -399q-252 0 -353.5 87t-99.5 255z " />
<glyph unicode="6" horiz-adv-x="1112" d="M74 360q0 55 28 242q31 180 64 295t92 211t152.5 140t230.5 44q178 0 286.5 -59t127.5 -178l-205 -37q-10 61 -63.5 82.5t-168.5 21.5q-121 0 -180 -70.5t-100 -250.5q104 90 280 90q383 0 383 -330q0 -61 -20 -170q-72 -399 -467 -399q-440 -1 -440 368zM258 369 q0 -213 264 -213q131 0 188.5 58t80.5 189q16 82 16 134q0 92 -55.5 143t-194.5 51q-137 0 -196.5 -56.5t-86.5 -189.5q-16 -87 -16 -116z" />
<glyph unicode="7" horiz-adv-x="962" d="M106 0l637 1116h-587l28 166h797l-27 -152l-645 -1130h-203z" />
<glyph unicode="8" horiz-adv-x="1161" d="M55 322q0 45 13 106q35 213 245 285q-115 68 -114 207q0 373 440 372q236 0 339 -78.5t103 -205.5q0 -37 -10 -95q-35 -178 -192 -233q139 -84 139 -250q0 -41 -12 -102q-33 -174 -150 -255t-336 -81q-238 0 -351.5 90t-113.5 240zM254 350q0 -197 281 -196 q125 0 190.5 44t89.5 158q8 43 8 70q0 193 -282 192q-129 0 -194.5 -48t-84.5 -150q-8 -35 -8 -70zM397 971q-16 -98 40.5 -148.5t203.5 -50.5q109 0 164 31t72 117q20 98 -35.5 153t-214.5 55q-111 0 -164.5 -38.5t-65.5 -118.5z" />
<glyph unicode="9" horiz-adv-x="1114" d="M66 229l204 37q10 -61 63.5 -83.5t168.5 -22.5q121 0 179 70.5t101 250.5q-106 -88 -280 -88q-383 0 -383 330q0 63 20 170q72 399 467 399q440 0 441 -368q0 -55 -29 -242q-31 -180 -63.5 -295t-92 -211t-153 -140t-230.5 -44q-178 0 -286.5 59t-126.5 178zM313 748 q0 -94 55.5 -145.5t196.5 -51.5q135 0 194.5 56.5t86.5 189.5q16 88 16 116q0 213 -264 213q-131 0 -188.5 -58t-79.5 -187q-17 -82 -17 -133z" />
<glyph unicode=":" horiz-adv-x="425" d="M10 0l37 211h182l-36 -211h-183zM131 688l37 211h184l-37 -211h-184z" />
<glyph unicode=";" horiz-adv-x="425" d="M-25 -199l17 99q55 6 72.5 24.5t27.5 75.5h-82l37 211h182l-36 -211q-16 -106 -59.5 -150.5t-158.5 -48.5zM131 686l37 213h184l-37 -213h-184z" />
<glyph unicode="&#x3c;" horiz-adv-x="1044" d="M131 553v168l705 348v-168l-539 -264l539 -266v-166z" />
<glyph unicode="=" horiz-adv-x="1044" d="M125 377v155h809v-155h-809zM125 727v158h809v-158h-809z" />
<glyph unicode="&#x3e;" horiz-adv-x="1044" d="M207 205v166l541 266l-541 264v168l706 -348v-168z" />
<glyph unicode="?" horiz-adv-x="974" d="M111 981q43 143 165.5 227t290.5 84q201 0 304.5 -74.5t103.5 -209.5q0 -70 -18.5 -126.5t-66.5 -107.5t-72.5 -71.5t-92.5 -71.5q-53 -41 -81 -65.5t-57.5 -68.5t-37.5 -89l-8 -48h-189l8 43q10 68 34 121.5t64 97.5t67.5 66.5t82.5 63.5q61 45 88 67.5t54.5 68.5 t27.5 99q0 133 -229 133q-182 0 -246 -166zM287 0l37 211h200l-37 -211h-200z" />
<glyph unicode="@" horiz-adv-x="1642" d="M131 459q0 168 31 298t106.5 244.5t222 177t359.5 62.5q172 0 296 -44t193.5 -111.5t109.5 -176t51 -210t11 -240.5q0 -180 -61 -271.5t-213 -91.5q-213 0 -250 119q-92 -121 -270 -121q-268 0 -268 254q0 53 26 201q37 176 110.5 264t209.5 88q170 0 235 -96l14 84h160 l-86 -486q-16 -92 12.5 -128.5t108.5 -36.5t104.5 55t24.5 166q0 123 -8 207t-38 174t-85 144t-152.5 89t-234.5 35q-139 0 -241.5 -34t-165 -91t-100.5 -143t-51 -176.5t-13 -204.5q0 -145 24.5 -252t85 -199t176 -139t285.5 -47q324 0 455 151l108 -100 q-70 -84 -219.5 -134t-343.5 -50q-172 0 -300 42t-207 110.5t-128 171t-66.5 209t-17.5 237.5zM614 369q0 -66 33 -99.5t117 -33.5q96 0 141 59t66 172l10 63q10 68 8 119t-43 80t-127 29t-123 -54.5t-61 -179.5q-21 -98 -21 -155z" />
<glyph unicode="A" d="M-78 0l649 1292h193l194 -1292h-184l-47 305h-461l-151 -305h-193zM346 465h359l-84 547z" />
<glyph unicode="B" horiz-adv-x="1165" d="M25 0l225 1282h434q424 0 424 -272q0 -125 -60.5 -214t-164.5 -116q70 -27 110.5 -95.5t40.5 -162.5q0 -209 -124 -315.5t-316 -106.5h-569zM244 160h358q113 0 177.5 74.5t64.5 185.5q0 84 -54.5 133t-166.5 49h-299zM350 766h332q106 0 167.5 52t61.5 161 q0 143 -225 143h-272z" />
<glyph unicode="C" horiz-adv-x="1132" d="M51 440q0 84 33 279q49 281 182 427t375 146q455 0 455 -409l-211 -29q1 17 1 33q0 103 -46 164q-53 70 -203 69q-156 0 -239 -104.5t-122 -313.5q-31 -164 -30 -253q0 -141 66.5 -214t219.5 -73q229 0 293 278l203 -28q-53 -199 -182 -309.5t-334 -110.5 q-461 -1 -461 448z" />
<glyph unicode="D" horiz-adv-x="1122" d="M25 0l225 1282h334q496 0 495 -434q0 -82 -37 -291q-49 -274 -186 -415.5t-383 -141.5h-448zM246 166h227q168 0 253 98t124 311q33 176 33 254q0 145 -73 214t-239 69h-159z" />
<glyph unicode="E" horiz-adv-x="1038" d="M25 0l225 1282h811l-31 -172h-618l-58 -322h557l-28 -172h-559l-78 -446h618l-28 -170h-811z" />
<glyph unicode="F" horiz-adv-x="976" d="M25 0l225 1282h797l-31 -172h-604l-60 -336h543l-29 -172h-544l-107 -602h-190z" />
<glyph unicode="G" horiz-adv-x="1185" d="M49 430q0 90 33 287q49 287 185 431t372 144q246 0 351.5 -95t109.5 -271l-205 -29v16q0 110 -53 157q-57 50 -211 50t-236 -106.5t-119 -313.5q-33 -176 -32 -264q0 -135 66.5 -204.5t224.5 -69.5q121 0 205.5 80t119.5 243l10 56h-317l29 164h499l-125 -705h-145 l-4 125q-121 -133 -311 -133q-447 0 -447 438z" />
<glyph unicode="H" horiz-adv-x="1185" d="M25 0l225 1282h190l-84 -479h533l84 479h190l-225 -1282h-190l110 631h-532l-111 -631h-190z" />
<glyph unicode="I" horiz-adv-x="471" d="M29 0l225 1282h190l-225 -1282h-190z" />
<glyph unicode="J" horiz-adv-x="942" d="M2 416l197 18q-2 -36 -3 -66q0 -113 30 -155q38 -53 161 -53q86 0 128 55t71 215l149 852h191l-154 -876q-43 -240 -133 -327t-252 -87q-231 0 -318 105q-70 85 -71 242q0 36 4 77z" />
<glyph unicode="K" horiz-adv-x="1124" d="M25 0l225 1282h190l-90 -506l580 506h235l-499 -438l295 -844h-199l-250 709l-205 -179l-92 -530h-190z" />
<glyph unicode="L" horiz-adv-x="964" d="M25 0l225 1282h190l-194 -1112h592l-31 -170h-782z" />
<glyph unicode="M" horiz-adv-x="1488" d="M25 0l225 1282h272l160 -997l512 997h272l-225 -1282h-190l174 985l-506 -985h-178l-158 997l-176 -997h-182z" />
<glyph unicode="N" horiz-adv-x="1185" d="M25 0l225 1282h244l323 -926l164 926h182l-225 -1282h-186l-363 1030l-180 -1030h-184z" />
<glyph unicode="O" horiz-adv-x="1169" d="M55 465q0 94 27 254q49 276 181 424.5t376 148.5q485 0 485 -448q0 -90 -34 -283q-47 -272 -186.5 -420.5t-381.5 -148.5q-246 0 -356.5 129t-110.5 344zM248 467q0 -307 286.5 -307t362.5 413q31 164 31 254q0 143 -68.5 218t-226.5 75q-152 0 -234 -101t-123 -317 q-28 -155 -28 -235z" />
<glyph unicode="P" d="M25 0l225 1282h452q188 0 298 -78t110 -233q0 -227 -125 -334t-319 -107h-357l-94 -530h-190zM338 694h334q244 0 243 248q0 174 -239 174h-264z" />
<glyph unicode="Q" horiz-adv-x="1169" d="M55 465q0 94 27 254q49 276 181 424.5t376 148.5q485 0 485 -448q0 -90 -34 -283q-61 -365 -285 -495l102 -216l-176 -77l-108 229q-49 -6 -101 -6q-246 0 -356.5 127t-110.5 342zM248 467q0 -307 286.5 -307t362.5 413q31 164 31 254q0 143 -68.5 218t-226.5 75 q-152 0 -234 -101t-123 -317q-28 -155 -28 -235z" />
<glyph unicode="R" horiz-adv-x="1124" d="M25 0l225 1282h430q205 0 318.5 -77t113.5 -232q0 -176 -90 -278.5t-231 -133.5l170 -561h-195l-166 549h-289l-96 -549h-190zM342 713h326q119 0 183 58t64 173q0 168 -245 168h-258z" />
<glyph unicode="S" horiz-adv-x="1097" d="M2 356l211 23q8 -119 75.5 -169t239.5 -50q109 0 187 47t78 164q0 33 -14.5 59.5t-34 45t-60.5 40t-69.5 32.5t-88.5 34q-76 29 -111.5 43t-94 45.5t-85 61.5t-49 78t-22.5 108q0 178 121 276t338 98q418 0 454 -313l-217 -27q-6 90 -64.5 129t-189.5 39 q-246 0 -246 -178q0 -29 13.5 -53.5t31 -42t56.5 -36.5t65.5 -30.5t86 -34t81 -30.5t73.5 -30.5t73.5 -38t57.5 -44.5t51.5 -57.5t27.5 -68.5t12 -85q0 -109 -43 -189.5t-113.5 -124.5t-149.5 -65.5t-165 -21.5q-274 0 -388 93t-128 273z" />
<glyph unicode="T" horiz-adv-x="1042" d="M131 1110l29 172h950l-29 -172h-381l-194 -1110h-191l195 1110h-379z" />
<glyph unicode="U" horiz-adv-x="1185" d="M100 457l144 825h190l-145 -836q-11 -60 -11 -106q0 -80 31 -120q49 -65 234 -64q131 0 192.5 65.5t89.5 222.5l146 838h186l-151 -858q-43 -242 -157 -340t-317 -98q-272 0 -374 112q-71 78 -71 221q-1 63 13 138z" />
<glyph unicode="V" horiz-adv-x="1095" d="M147 1282h187l145 -1026l506 1026h193l-646 -1292h-194z" />
<glyph unicode="W" horiz-adv-x="1712" d="M199 1282h188l57 -965l443 965h168l102 -965l397 965h189l-543 -1292h-180l-109 962l-444 -962h-180z" />
<glyph unicode="X" horiz-adv-x="1105" d="M-76 0l531 694l-248 588h194l187 -442l325 442h205l-461 -608l287 -674h-194l-222 524l-391 -524h-213z" />
<glyph unicode="Y" horiz-adv-x="1091" d="M125 1282h203l233 -543l430 543h203l-565 -707l-101 -575h-190l102 578z" />
<glyph unicode="Z" horiz-adv-x="1046" d="M-16 0l28 156l781 954h-603l29 172h838l-27 -160l-780 -952h620l-28 -170h-858z" />
<glyph unicode="[" horiz-adv-x="663" d="M-39 -365l289 1647h446l-28 -172h-256l-230 -1307h256l-30 -168h-447z" />
<glyph unicode="\" horiz-adv-x="731" d="M106 1282h183l338 -1282h-183z" />
<glyph unicode="]" horiz-adv-x="663" d="M-94 -365l31 170h256l229 1307h-256l29 170h446l-289 -1647h-446z" />
<glyph unicode="^" horiz-adv-x="1064" d="M233 645l254 254h218l163 -254h-176l-112 148l-164 -148h-183z" />
<glyph unicode="_" horiz-adv-x="763" d="M-238 -250l29 156h928l-29 -156h-928z" />
<glyph unicode="`" horiz-adv-x="1064" d="M303 1262h209l225 -254h-182z" />
<glyph unicode="a" horiz-adv-x="952" d="M23 283q0 70 30 229q72 401 365 401q197 0 268 -108l16 94h181l-160 -899h-180l18 96q-98 -104 -239 -104q-164 0 -231.5 76t-67.5 215zM211 307q0 -76 39 -114.5t133 -38.5q109 0 160 67.5t75 198.5l13 72q10 54 10 96q0 62 -21 100q-36 63 -174 64q-96 0 -140 -62.5 t-70 -204.5q-25 -121 -25 -178z" />
<glyph unicode="b" horiz-adv-x="958" d="M6 0l236 1343h180l-94 -540q90 111 258 110q158 0 222 -71.5t64 -204.5q0 -88 -28 -242q-35 -199 -122 -301t-251 -102q-193 0 -266 112l-19 -104h-180zM258 412q-10 -53 -10 -96q0 -63 22 -101q37 -63 176 -63q96 0 141.5 61t71.5 195q27 135 27 190q0 78 -37 116 t-131 38q-111 0 -167 -70t-81 -195z" />
<glyph unicode="c" horiz-adv-x="884" d="M16 328q0 57 19 178q35 201 142.5 304t279.5 103q348 0 348 -317l-189 -31q1 17 2 33q0 72 -31 109q-38 45 -143 45q-102 0 -148 -62.5t-75 -204.5q-18 -94 -18 -147q0 -188 178 -188q82 0 128 40.5t71 133.5l180 -35q-43 -143 -146.5 -220t-246.5 -77q-351 0 -351 336z " />
<glyph unicode="d" horiz-adv-x="960" d="M53 512q72 401 365 401q203 0 274 -110l96 540h181l-238 -1343h-180l18 98q-102 -106 -247 -106q-166 0 -234 76q-66 74 -66 205q0 79 31 239zM211 311q0 -80 38 -118.5t134 -38.5q109 0 164 69.5t80 196.5l12 72q10 52 9 92q0 65 -23 104q-39 63 -179 64 q-96 0 -140 -62.5t-70 -204.5q-25 -117 -25 -174z" />
<glyph unicode="e" horiz-adv-x="870" d="M16 328q0 72 19 178q33 199 141.5 303t280.5 104q340 0 340 -295q0 -49 -11 -110l-20 -115h-567q-4 -25 -4 -57q0 -193 190 -193q78 0 120 31t64 96l172 -37q-84 -242 -372 -241q-353 0 -353 336zM225 547h389q4 41 4 57q0 76 -38.5 115t-135.5 39q-94 0 -144 -52.5 t-75 -158.5z" />
<glyph unicode="f" horiz-adv-x="618" d="M39 733l31 166h174l24 141q29 158 101.5 230.5t248.5 72.5h105l-29 -165h-76q-94 0 -126.5 -39t-49.5 -129l-20 -111h223l-31 -166h-221l-127 -733h-180l127 733h-174z" />
<glyph unicode="g" horiz-adv-x="958" d="M-51 -172l186 57q14 -59 61.5 -81.5t147.5 -22.5q92 0 138 41t65 145l22 133q-100 -106 -247 -106q-164 0 -233 75q-67 73 -67 204q0 79 31 239q72 401 365 401q199 0 276 -110l17 96h180l-166 -942q-31 -170 -118 -251t-265 -81q-197 0 -278.5 51.5t-114.5 151.5z M211 311q0 -80 38 -118.5t134 -38.5q109 0 164 69.5t80 196.5l12 72q10 52 9 92q0 65 -23 104q-39 63 -179 64q-96 0 -140 -62.5t-70 -204.5q-25 -117 -25 -174z" />
<glyph unicode="h" horiz-adv-x="944" d="M6 0l236 1343h180l-94 -532q106 102 250 102q172 0 226 -83q36 -54 35 -143q0 -47 -10 -103l-102 -584h-180l100 580q5 51 5 82q0 38 -36 63q-37 27 -114 27q-94 0 -149.5 -60.5t-80.5 -197.5l-86 -494h-180z" />
<glyph unicode="i" horiz-adv-x="421" d="M10 0l158 899h180l-158 -899h-180zM188 1034l37 205h187l-37 -205h-187z" />
<glyph unicode="j" horiz-adv-x="421" d="M-201 -365l27 158h49q63 0 85 26.5t36 108.5l172 971h180l-176 -997q-25 -145 -87 -206t-194 -61h-92zM188 1034l37 205h187l-37 -205h-187z" />
<glyph unicode="k" horiz-adv-x="833" d="M6 0l238 1343h180l-133 -751l358 307h215l-362 -311l205 -588h-187l-162 467l-106 -92l-66 -375h-180z" />
<glyph unicode="l" horiz-adv-x="421" d="M10 0l238 1343h180l-238 -1343h-180z" />
<glyph unicode="m" horiz-adv-x="1447" d="M6 0l158 899h180l-16 -88q106 102 247 102q195 0 234 -125q125 125 289 125q166 0 216 -83q31 -51 31 -134q0 -51 -12 -112l-102 -584h-180l102 580q6 63 6 84q0 36 -33 61q-35 27 -104 27q-92 0 -146.5 -58.5t-78.5 -187.5l-88 -506h-181l103 580q6 63 6 84q0 36 -33 61 q-35 27 -104 27q-94 0 -148.5 -60.5t-79.5 -197.5l-86 -494h-180z" />
<glyph unicode="n" horiz-adv-x="944" d="M6 0l158 899h180l-16 -88q106 102 250 102q172 0 226 -83q36 -54 35 -143q0 -47 -10 -103l-102 -584h-180l100 580q5 51 5 82q0 38 -36 63q-37 27 -114 27q-94 0 -149.5 -60.5t-80.5 -197.5l-86 -494h-180z" />
<glyph unicode="o" horiz-adv-x="890" d="M16 336q0 51 19 172q74 406 422 405q360 0 360 -331q0 -55 -24 -189q-70 -401 -433 -401q-176 0 -260 95t-84 249zM201 342q0 -190 176 -190q100 0 154.5 64.5t80.5 199.5q18 100 19 153q0 88 -42 135.5t-145 47.5q-98 0 -148 -63.5t-79 -205.5q-16 -82 -16 -141z" />
<glyph unicode="p" horiz-adv-x="958" d="M-57 -365l221 1264h180l-16 -94q90 109 247 108q166 0 231.5 -73.5t65.5 -212.5q0 -70 -28 -230q-35 -199 -121 -302t-244 -103q-201 0 -274 112l-82 -469h-180zM258 412q-10 -52 -9 -93q0 -65 23 -104q39 -63 181 -63q94 0 137 62t72 206q25 109 24 176q0 78 -39 117 t-133 39q-109 0 -164 -70t-80 -197z" />
<glyph unicode="q" horiz-adv-x="958" d="M53 512q72 401 365 401q199 0 276 -110l17 96h180l-223 -1264h-181l82 465q-100 -109 -247 -108q-166 0 -234 75q-66 73 -66 205q0 80 31 240zM211 311q0 -80 38 -118.5t134 -38.5q109 0 164 69.5t80 196.5l12 72q10 52 9 92q0 65 -23 104q-39 63 -179 64 q-96 0 -140 -62.5t-70 -204.5q-25 -117 -25 -174z" />
<glyph unicode="r" horiz-adv-x="569" d="M6 0l158 899h182l-18 -100q106 111 270 110l-29 -161q-139 0 -207.5 -74t-95.5 -225l-80 -449h-180z" />
<glyph unicode="s" horiz-adv-x="831" d="M-31 229l189 47q8 -78 50 -107.5t159 -29.5q162 0 161 119q0 45 -35.5 68.5t-130.5 56.5q-145 51 -211.5 100t-66.5 144q0 129 90 207.5t260 78.5q164 0 250 -57t96 -151l-188 -58q0 59 -37 87t-133 28q-152 0 -152 -113q0 -37 34 -60.5t134 -58.5q70 -25 109 -41 t84 -44.5t64.5 -68.5t19.5 -93q0 -154 -102.5 -222.5t-247.5 -68.5q-193 0 -286.5 57t-109.5 180z" />
<glyph unicode="t" horiz-adv-x="659" d="M33 733l30 166h175l47 266h180l-47 -266h219l-29 -166h-221l-72 -411q-7 -42 -7 -72q0 -39 13 -56q22 -32 115 -32h72l-29 -162h-71q-195 0 -249 69q-36 45 -36 134q0 47 10 106l74 424h-174z" />
<glyph unicode="u" horiz-adv-x="944" d="M53 317l103 582h180l-103 -580q-5 -51 -5 -79q0 -36 36 -61q37 -26 115 -25q96 0 150.5 58t78.5 196l86 491h180l-157 -899h-180l14 90q-106 -98 -248 -98q-174 0 -226 81q-34 52 -34 139q0 47 10 105z" />
<glyph unicode="v" horiz-adv-x="825" d="M72 899h184l25 -180l61 -471l229 469l91 182h188l-459 -907h-188z" />
<glyph unicode="w" horiz-adv-x="1314" d="M84 899h184l17 -188l39 -441l204 441l88 188h177l20 -188l45 -441l197 443l86 186h184l-424 -907h-176l-72 622l-293 -622h-178z" />
<glyph unicode="x" horiz-adv-x="823" d="M-90 0l375 481l-181 418h187l119 -276l206 276h199l-338 -436l201 -463h-186l-140 324l-241 -324h-201z" />
<glyph unicode="y" horiz-adv-x="815" d="M-90 -365l27 158h69q61 0 86 21.5t60 91.5l53 100l-135 893h186l86 -639l311 639h187l-543 -1071q-55 -106 -114.5 -149.5t-159.5 -43.5h-113z" />
<glyph unicode="z" horiz-adv-x="813" d="M-35 0l27 150l514 583h-393l30 166h621l-27 -154l-514 -583h432l-28 -162h-662z" />
<glyph unicode="{" horiz-adv-x="724" d="M10 373l33 172h96q59 0 87 23.5t32 76.5l27 336q16 166 78.5 233.5t201.5 67.5h193l-29 -172h-131q-57 0 -86 -26.5t-35 -92.5l-28 -362q-8 -119 -123 -168q98 -49 63 -172l-98 -365q-18 -66 1 -92.5t77 -26.5h131l-31 -170h-139q-162 0 -217.5 70t-12.5 229l95 338 q14 53 -6.5 77t-79.5 24h-99z" />
<glyph unicode="|" horiz-adv-x="552" d="M180 -365v1647h191v-1647h-191z" />
<glyph unicode="}" horiz-adv-x="724" d="M-92 -365l29 170h131q57 0 85.5 27t34.5 92l29 365q12 121 125 170q-98 47 -66 170l101 362q18 66 -2.5 92.5t-77.5 26.5h-131l31 172h139q162 0 217 -70.5t12 -230.5l-92 -336q-14 -53 6.5 -76.5t79.5 -23.5h96l-30 -172h-99q-59 0 -86.5 -23.5t-31.5 -77.5l-27 -338 q-14 -166 -76.5 -232.5t-202.5 -66.5h-194z" />
<glyph unicode="~" horiz-adv-x="1064" d="M236 686q49 213 196 213q68 0 153 -46t105 -46q55 0 72 92l145 -20q-25 -102 -68.5 -157.5t-125.5 -55.5q-70 0 -156 46t-104 46q-31 0 -48.5 -20.5t-25.5 -71.5z" />
<glyph unicode="&#xa1;" horiz-adv-x="559" d="M68 0l36 213l152 709h150l-101 -709l-37 -213h-200zM256 1071l37 211h201l-37 -211h-201z" />
<glyph unicode="&#xa2;" horiz-adv-x="1013" d="M80 326q0 72 18 180q31 186 127.5 288.5t247.5 116.5l31 181h170l-33 -191q227 -47 227 -305l-186 -31q10 139 -76 172l-102 -583q100 23 141 168l176 -33q-82 -268 -342 -291l-39 -236h-168l41 242q-233 52 -233 322zM262 336q0 -131 84 -170l105 582q-72 -16 -110 -79 t-60 -184q-19 -98 -19 -149z" />
<glyph unicode="&#xa3;" horiz-adv-x="1050" d="M16 0l25 137q217 158 217 367q0 6 -1 21.5t-1 23.5h-184l26 156h135q-18 111 -18 186q0 201 120 301t288 100q356 0 419 -274l-196 -62q-18 90 -67.5 127t-166.5 37q-94 0 -149 -57t-55 -174q0 -57 20 -184h375l-27 -156h-327q2 -10 2 -29q0 -209 -156 -350h584l-31 -170 h-832z" />
<glyph unicode="&#xa5;" horiz-adv-x="1085" d="M47 156l27 155h317l25 148h-316l27 155h317l5 29l-310 639h195l233 -487l408 487h199l-535 -637l-4 -31h315l-28 -155h-316l-24 -148h315l-29 -155h-315l-27 -156h-190l26 156h-315z" />
<glyph unicode="&#xa6;" horiz-adv-x="552" d="M180 326h191v-691h-191v691zM180 592v690h191v-690h-191z" />
<glyph unicode="&#xa7;" horiz-adv-x="923" d="M16 236l187 45q12 -80 50 -109t161 -29q156 0 155 119q0 49 -42 76t-167 70q-117 37 -178 89t-61 136q0 147 143 211q-74 51 -74 165.5t90.5 193.5t260.5 79q328 0 356 -217l-190 -55q-4 57 -44 85.5t-139 28.5q-147 0 -147 -102q0 -45 33.5 -68.5t136.5 -56.5 q70 -23 108.5 -39t84.5 -45t67.5 -68.5t21.5 -93.5q0 -158 -137 -211q63 -47 64 -147q0 -160 -106.5 -230.5t-246.5 -70.5q-188 0 -279.5 59.5t-107.5 184.5zM307 662q0 -41 36 -70t126 -62q72 -29 125 -4t53 99q0 84 -166 133q-76 23 -125 -1.5t-49 -94.5z" />
<glyph unicode="&#xa8;" horiz-adv-x="1064" d="M344 1008l33 194h174l-33 -194h-174zM684 1008l33 194h174l-33 -194h-174z" />
<glyph unicode="&#xa9;" horiz-adv-x="1429" d="M88 637q0 143 28.5 252.5t95.5 202t193.5 141.5t307.5 49q182 0 309 -49t194.5 -141.5t96 -202t28.5 -252.5t-28.5 -252t-96 -202t-194.5 -142t-309 -49q-180 0 -307 49t-194 142t-95.5 202t-28.5 252zM201 637q0 -127 20.5 -217t73.5 -168t157.5 -117t260.5 -39 q158 0 263 39t158.5 117t74 168t20.5 217q0 129 -20.5 219t-74 167t-159 116t-262.5 39q-156 0 -260.5 -39t-157.5 -116t-73.5 -167t-20.5 -219zM360 614v50q0 203 81 313t278 110q154 0 229.5 -71.5t100.5 -218.5l-154 -23q-20 182 -178 182q-121 0 -167 -74.5t-46 -217.5 v-50q0 -150 47 -221t166 -71q92 0 133 45t55 143l150 -21q-53 -297 -346 -296q-188 0 -268.5 111t-80.5 310z" />
<glyph unicode="&#xaa;" horiz-adv-x="868" d="M121 741q25 139 158 207t383 86q2 4 2 8q10 61 -24 84t-128 23q-109 0 -160 -76l-151 51q47 72 133 120t201 48q178 0 242.5 -68.5t43.5 -197.5l-96 -545h-160l17 97q-92 -104 -224 -105q-152 0 -204.5 77.5t-32.5 190.5zM287 737q-10 -59 21.5 -93t113.5 -34 q166 0 199 191q10 53 18 108q-164 -12 -251 -52t-101 -120z" />
<glyph unicode="&#xab;" horiz-adv-x="892" d="M14 451l308 448h178l-305 -448l147 -451h-180zM403 451l308 448h180l-307 -448l147 -451h-178z" />
<glyph unicode="&#xac;" horiz-adv-x="1060" d="M76 344q0 227 184 297q-184 72 -184 305q0 293 301 336l22 -129q-102 -12 -151 -58t-49 -151q0 -137 78.5 -191.5t228.5 -54.5h49q309 0 309 246q0 104 -47 153.5t-143 61.5l16 125q152 -35 223.5 -117t71.5 -227q0 -227 -186 -299q186 -74 186 -303q0 -293 -301 -336 l-22 133q102 12 151 57.5t49 147.5q0 137 -78.5 191.5t-228.5 54.5h-49q-309 0 -309 -246q0 -104 47 -151.5t143 -59.5l-16 -129q-154 35 -224.5 113.5t-70.5 230.5z" />
<glyph unicode="&#xad;" horiz-adv-x="737" d="M25 455l30 163h625l-31 -163h-624z" />
<glyph unicode="&#xae;" horiz-adv-x="1429" d="M88 637q0 143 28.5 252.5t95.5 202t193.5 141.5t307.5 49q182 0 309 -49t194.5 -141.5t96 -202t28.5 -252.5t-28.5 -252t-96 -202t-194.5 -142t-309 -49q-180 0 -307 49t-194 142t-95.5 202t-28.5 252zM201 637q0 -127 20.5 -217t73.5 -168t157.5 -117t260.5 -39 q158 0 263 39t158.5 117t74 168t20.5 217q0 129 -20.5 219t-74 167t-159 116t-262.5 39q-156 0 -260.5 -39t-157.5 -116t-73.5 -167t-20.5 -219zM424 236v819h336q264 0 264 -232q0 -168 -156 -223l170 -364h-141l-162 346h-182v-346h-129zM553 698h201q137 0 137 119 q0 121 -137 121h-201v-240z" />
<glyph unicode="&#xaf;" horiz-adv-x="1064" d="M297 1008l27 149h606l-25 -149h-608z" />
<glyph unicode="&#x2c9;" horiz-adv-x="1064" d="M297 1008l27 149h606l-25 -149h-608z" />
<glyph unicode="&#xb0;" horiz-adv-x="899" d="M135 786q0 53 17 146q66 360 378 360q170 0 248 -82t78 -219q0 -51 -20 -162q-63 -356 -387 -356q-158 0 -236 86t-78 227zM303 795q-4 -176 164 -177q92 0 139 59.5t72 203.5q10 61 10 100q0 80 -39 122t-131 42t-136 -59.5t-71 -204.5q-8 -41 -8 -86z" />
<glyph unicode="&#xb1;" horiz-adv-x="1513" d="M39 733l31 166h174l24 141q29 158 101.5 230.5t248.5 72.5h99l-29 -165h-70q-94 0 -126.5 -39t-49.5 -129l-20 -111h330l24 137q29 160 103.5 233.5t255.5 73.5h90l-29 -165h-70q-94 0 -126.5 -39t-49.5 -129l-20 -111h217l-29 -166h-217l-127 -733h-180l129 733h-330 l-127 -733h-180l127 733h-174zM1102 0l237 1343h181l-238 -1343h-180z" />
<glyph unicode="&#xb2;" horiz-adv-x="921" d="M88 385l16 84q25 143 103 223t278 172q123 57 162 92t39 93q0 94 -151 94q-121 0 -164 -113l-164 33q41 106 131 165.5t217 59.5q145 0 222 -55t77 -152q0 -125 -63.5 -192.5t-229.5 -138.5q-147 -68 -196.5 -111t-69.5 -109h463l-27 -145h-643z" />
<glyph unicode="&#xb3;" horiz-adv-x="935" d="M127 627l170 22q-2 -82 38 -105.5t148 -23.5q35 0 54.5 3t43 14.5t37 41t21.5 76.5q14 76 -28 110t-150 34h-109l25 133h166q66 0 97.5 18.5t43.5 79.5q10 59 -24.5 88t-124.5 29q-121 0 -164 -94l-160 32q41 96 129 149.5t213 53.5q184 0 251.5 -65.5t47.5 -180.5 q-27 -133 -147 -180q53 -16 84.5 -69.5t15.5 -143.5q-25 -143 -101.5 -206.5t-236.5 -61.5q-176 0 -256 60.5t-84 185.5z" />
<glyph unicode="&#xb4;" horiz-adv-x="1064" d="M455 1008l315 254h223l-342 -254h-196z" />
<glyph unicode="&#xb5;" horiz-adv-x="954" d="M-57 -365l223 1264h180l-102 -580q-4 -41 -5 -77.5t35.5 -62t114.5 -25.5q96 0 150.5 58t78.5 196l87 491h180l-158 -899h-180l14 90q-98 -92 -244 -92q-92 0 -122 43l-72 -406h-180z" />
<glyph unicode="&#x3bc;" horiz-adv-x="954" d="M-57 -365l223 1264h180l-102 -580q-4 -41 -5 -77.5t35.5 -62t114.5 -25.5q96 0 150.5 58t78.5 196l87 491h180l-158 -899h-180l14 90q-98 -92 -244 -92q-92 0 -122 43l-72 -406h-180z" />
<glyph unicode="&#xb6;" horiz-adv-x="1085" d="M150 934q0 106 30.5 179t89 107.5t121 48t146.5 13.5h526l-225 -1282h-191l119 676h-170l-119 -676h-190l119 682q-256 39 -256 252z" />
<glyph unicode="&#xb7;" horiz-adv-x="436" d="M104 555l41 221h201l-41 -221h-201z" />
<glyph unicode="&#x2219;" horiz-adv-x="436" d="M104 555l41 221h201l-41 -221h-201z" />
<glyph unicode="&#xb8;" horiz-adv-x="1064" d="M160 -276l125 40q4 -37 28.5 -51t81.5 -14q100 0 101 88q0 68 -90 68q-43 0 -74 -15l-84 41l110 160h123l-73 -107q33 4 49 5q72 0 119 -33t47 -103q0 -104 -63.5 -153t-160.5 -49q-219 0 -239 123z" />
<glyph unicode="&#xb9;" horiz-adv-x="731" d="M213 1124l29 158h376l-157 -897h-170l131 739h-209z" />
<glyph unicode="&#xba;" horiz-adv-x="899" d="M135 784q0 41 17 150q66 358 376 358q328 0 328 -295q0 -55 -20 -166q-29 -170 -127.5 -264t-259.5 -94q-160 0 -237 86t-77 225zM301 786q0 -168 164 -168q92 0 140 60.5t73 204.5q10 49 10 108q-2 76 -39 115t-127 39q-96 0 -140 -58.5t-71 -205.5q-10 -58 -10 -95z " />
<glyph unicode="&#xbb;" horiz-adv-x="892" d="M-61 0l307 451l-148 448h178l150 -448l-307 -451h-180zM330 0l305 451l-148 448h181l147 -448l-307 -451h-178z" />
<glyph unicode="&#xbc;" horiz-adv-x="1671" d="M152 1124l28 158h377l-158 -897h-170l131 739h-208zM311 0l789 1282h170l-789 -1282h-170zM799 184l26 148l527 565h170l-99 -565h148l-25 -148h-149l-33 -184h-162l33 184h-436zM1008 332h252l59 336z" />
<glyph unicode="&#xbd;" horiz-adv-x="1753" d="M152 1124l28 158h377l-158 -897h-170l131 739h-208zM311 0l789 1282h170l-789 -1282h-170zM913 0l17 84q25 143 102.5 223t276.5 172q125 57 162.5 92t37.5 93q0 94 -149 94q-121 0 -164 -113l-164 33q41 106 131 165.5t215 59.5q147 0 224 -54t77 -153 q0 -125 -63.5 -192.5t-229.5 -138.5q-150 -68 -197.5 -110t-68.5 -110h461l-25 -145h-643z" />
<glyph unicode="&#xbe;" horiz-adv-x="1855" d="M66 627l170 22q-2 -82 37.5 -105.5t148.5 -23.5q35 0 54.5 3t43 14.5t36.5 41t22 76.5q14 76 -28 110t-151 34h-108l24 133h166q66 0 97.5 18.5t44.5 79.5q10 59 -25 88t-125 29q-121 0 -164 -94l-159 32q41 96 129 149.5t213 53.5q184 0 251.5 -65.5t47.5 -180.5 q-27 -133 -148 -180q53 -16 85 -69.5t15 -143.5q-25 -143 -101.5 -206.5t-235.5 -61.5q-176 0 -256 60.5t-84 185.5zM494 0l788 1282h172l-788 -1282h-172zM983 184l27 148l524 565h172l-98 -565h147l-26 -148h-148l-33 -184h-164l33 184h-434zM1192 332h252l59 336z" />
<glyph unicode="&#xbf;" horiz-adv-x="974" d="M4 274q0 70 18.5 126.5t66.5 107.5t72.5 71.5t92.5 71.5q53 41 80.5 65.5t57.5 68.5t38 89l8 48h189l-9 -43q-10 -68 -33.5 -121t-63.5 -97.5t-67.5 -67t-82.5 -63.5q-61 -45 -88 -67.5t-54.5 -68.5t-27.5 -99q0 -133 229 -133q182 0 246 166l192 -27 q-43 -143 -165.5 -227t-288.5 -84q-203 0 -306.5 74.5t-103.5 209.5zM455 1071l37 211h200l-37 -211h-200z" />
<glyph unicode="&#xc0;" d="M-78 0l649 1292h193l194 -1292h-184l-47 305h-461l-151 -305h-193zM346 465h359l-84 547zM328 1618h209l225 -254h-182z" />
<glyph unicode="&#xc1;" d="M-78 0l649 1292h193l194 -1292h-184l-47 305h-461l-151 -305h-193zM346 465h359l-84 547zM576 1364l315 254h223l-342 -254h-196z" />
<glyph unicode="&#xc2;" d="M-78 0l649 1292h193l194 -1292h-184l-47 305h-461l-151 -305h-193zM346 465h359l-84 547zM363 1364l254 254h217l164 -254h-177l-112 147l-162 -147h-184z" />
<glyph unicode="&#xc3;" d="M-78 0l649 1292h193l194 -1292h-184l-47 305h-461l-151 -305h-193zM346 465h359l-84 547zM367 1382q49 213 196 213q66 0 151 -45t105 -45q55 0 74 90l145 -18q-27 -104 -69.5 -158.5t-126.5 -54.5q-68 0 -154 45t-104 45q-31 0 -48.5 -19.5t-27.5 -70.5z" />
<glyph unicode="&#xc4;" d="M-78 0l649 1292h193l194 -1292h-184l-47 305h-461l-151 -305h-193zM346 465h359l-84 547zM424 1364l33 194h174l-33 -194h-174zM764 1364l33 194h174l-33 -194h-174z" />
<glyph unicode="&#xc5;" d="M-78 0l621 1235q-55 39 -56 121q0 92 53.5 151.5t155.5 59.5q176 0 176 -150q0 -139 -100 -190l186 -1227h-184l-47 305h-461l-151 -305h-193zM346 465h359l-84 547zM594 1370q0 -74 80 -74q45 0 69.5 29t24.5 78q0 72 -80 72q-94 -1 -94 -105z" />
<glyph unicode="&#xc6;" horiz-adv-x="1689" d="M-119 0l934 1282h895l-29 -172h-606l-55 -322h543l-31 -170h-543l-78 -448h605l-31 -170h-795l51 299h-438l-217 -299h-205zM416 453h352l113 639z" />
<glyph unicode="&#xc7;" horiz-adv-x="1132" d="M51 440q0 84 33 279q49 281 182 427t375 146q455 0 455 -409l-211 -29q8 127 -45.5 196.5t-202.5 69.5q-156 0 -239 -104.5t-122 -313.5q-31 -164 -30 -253q0 -141 66.5 -214t219.5 -73q229 0 293 278l203 -28q-53 -199 -182 -309.5t-334 -110.5h-33l-39 -58q33 4 49 5 q72 0 119 -33t47 -103q0 -104 -63.5 -153t-159.5 -49q-219 0 -239 123l124 40q4 -37 29 -51t82 -14q100 0 100 88q0 68 -90 68q-43 0 -73 -15l-84 41l86 123q-316 65 -316 436z" />
<glyph unicode="&#xc8;" horiz-adv-x="1038" d="M25 0l225 1282h811l-31 -172h-618l-58 -322h557l-28 -172h-559l-78 -446h618l-28 -170h-811zM352 1618h209l225 -254h-182z" />
<glyph unicode="&#xc9;" horiz-adv-x="1038" d="M25 0l225 1282h811l-31 -172h-618l-58 -322h557l-28 -172h-559l-78 -446h618l-28 -170h-811zM504 1364l315 254h223l-342 -254h-196z" />
<glyph unicode="&#xca;" horiz-adv-x="1038" d="M25 0l225 1282h811l-31 -172h-618l-58 -322h557l-28 -172h-559l-78 -446h618l-28 -170h-811zM332 1364l254 254h217l164 -254h-176l-113 147l-162 -147h-184z" />
<glyph unicode="&#xcb;" horiz-adv-x="1038" d="M25 0l225 1282h811l-31 -172h-618l-58 -322h557l-28 -172h-559l-78 -446h618l-28 -170h-811zM393 1364l33 195h174l-33 -195h-174zM733 1364l33 195h174l-33 -195h-174z" />
<glyph unicode="&#xcc;" horiz-adv-x="471" d="M29 0l225 1282h190l-225 -1282h-190zM16 1618h209l225 -254h-182z" />
<glyph unicode="&#xcd;" horiz-adv-x="471" d="M29 0l225 1282h190l-225 -1282h-190zM265 1364l315 254h223l-342 -254h-196z" />
<glyph unicode="&#xce;" horiz-adv-x="471" d="M29 0l225 1282h190l-225 -1282h-190zM50 1364l254 254h217l164 -254h-177l-112 147l-162 -147h-184z" />
<glyph unicode="&#xcf;" horiz-adv-x="471" d="M29 0l225 1282h190l-225 -1282h-190zM111 1364l33 194h174l-33 -194h-174zM451 1364l33 194h174l-33 -194h-174z" />
<glyph unicode="&#xd0;" horiz-adv-x="1122" d="M-8 580l28 161h134l96 541h334q496 0 495 -434q0 -82 -37 -291q-49 -274 -186 -415.5t-383 -141.5h-448l100 580h-133zM246 166h227q168 0 253 98t124 311q33 176 33 254q0 145 -73 214t-239 69h-159l-66 -371h223l-28 -161h-224z" />
<glyph unicode="&#xd1;" horiz-adv-x="1185" d="M25 0l225 1282h244l323 -926l164 926h182l-225 -1282h-186l-363 1030l-180 -1030h-184zM408 1382q49 213 196 213q66 0 151 -45t105 -45q55 0 74 90l145 -18q-27 -104 -69.5 -158.5t-126.5 -54.5q-68 0 -154 45t-104 45q-31 0 -48.5 -19.5t-27.5 -70.5z" />
<glyph unicode="&#xd2;" horiz-adv-x="1169" d="M55 465q0 94 27 254q49 276 181 424.5t376 148.5q485 0 485 -448q0 -90 -34 -283q-47 -272 -186.5 -420.5t-381.5 -148.5q-246 0 -356.5 129t-110.5 344zM248 467q0 -307 286.5 -307t362.5 413q31 164 31 254q0 143 -68.5 218t-226.5 75q-152 0 -234 -101t-123 -317 q-28 -155 -28 -235zM416 1618h209l225 -254h-182z" />
<glyph unicode="&#xd3;" horiz-adv-x="1169" d="M55 465q0 94 27 254q49 276 181 424.5t376 148.5q485 0 485 -448q0 -90 -34 -283q-47 -272 -186.5 -420.5t-381.5 -148.5q-246 0 -356.5 129t-110.5 344zM248 467q0 -307 286.5 -307t362.5 413q31 164 31 254q0 143 -68.5 218t-226.5 75q-152 0 -234 -101t-123 -317 q-28 -155 -28 -235zM567 1364l316 254h223l-342 -254h-197z" />
<glyph unicode="&#xd4;" horiz-adv-x="1169" d="M55 465q0 94 27 254q49 276 181 424.5t376 148.5q485 0 485 -448q0 -90 -34 -283q-47 -272 -186.5 -420.5t-381.5 -148.5q-246 0 -356.5 129t-110.5 344zM248 467q0 -307 286.5 -307t362.5 413q31 164 31 254q0 143 -68.5 218t-226.5 75q-152 0 -234 -101t-123 -317 q-28 -155 -28 -235zM395 1364l254 254h217l164 -254h-176l-113 147l-161 -147h-185z" />
<glyph unicode="&#xd5;" horiz-adv-x="1169" d="M55 465q0 94 27 254q49 276 181 424.5t376 148.5q485 0 485 -448q0 -90 -34 -283q-47 -272 -186.5 -420.5t-381.5 -148.5q-246 0 -356.5 129t-110.5 344zM248 467q0 -307 286.5 -307t362.5 413q31 164 31 254q0 143 -68.5 218t-226.5 75q-152 0 -234 -101t-123 -317 q-28 -155 -28 -235zM400 1382q49 213 196 213q66 0 151 -45t105 -45q55 0 74 90l145 -18q-27 -104 -69.5 -158.5t-126.5 -54.5q-68 0 -154 45t-104 45q-31 0 -48.5 -19.5t-27.5 -70.5z" />
<glyph unicode="&#xd6;" horiz-adv-x="1169" d="M55 465q0 94 27 254q49 276 181 424.5t376 148.5q485 0 485 -448q0 -90 -34 -283q-47 -272 -186.5 -420.5t-381.5 -148.5q-246 0 -356.5 129t-110.5 344zM248 467q0 -307 286.5 -307t362.5 413q31 164 31 254q0 143 -68.5 218t-226.5 75q-152 0 -234 -101t-123 -317 q-28 -155 -28 -235zM457 1364l32 195h175l-33 -195h-174zM797 1364l32 195h175l-33 -195h-174z" />
<glyph unicode="&#xd7;" horiz-adv-x="1044" d="M127 360l279 279l-279 279l119 116l276 -278l279 278l117 -116l-279 -279l279 -279l-117 -116l-279 278l-276 -278z" />
<glyph unicode="&#xd8;" horiz-adv-x="1169" d="M-37 -61l172 219q-80 115 -80 307q0 94 27 254q49 276 181 424.5t376 148.5q188 0 305 -67l92 118h174l-166 -210q80 -109 80 -289q0 -90 -34 -283q-47 -272 -186.5 -420.5t-381.5 -148.5q-182 0 -289 71l-96 -124h-174zM244 467q0 -96 16 -154l578 764q-72 45 -205 45 q-152 0 -236 -102t-125 -318q-28 -155 -28 -235zM336 205q66 -47 199 -47q291 0 366 415q33 174 33 254q0 90 -16 146z" />
<glyph unicode="&#xd9;" horiz-adv-x="1185" d="M100 457l144 825h190l-145 -836q-11 -60 -11 -106q0 -80 31 -120q49 -65 234 -64q131 0 192.5 65.5t89.5 222.5l146 838h186l-151 -858q-43 -242 -157 -340t-317 -98q-272 0 -374 112q-71 78 -71 221q-1 63 13 138zM424 1618h209l225 -254h-182z" />
<glyph unicode="&#xda;" horiz-adv-x="1185" d="M100 457l144 825h190l-145 -836q-29 -162 20 -226t234 -64q131 0 192.5 65.5t89.5 222.5l146 838h186l-151 -858q-43 -242 -157 -340t-317 -98q-272 0 -374.5 112.5t-57.5 358.5zM575 1364l316 254h223l-342 -254h-197z" />
<glyph unicode="&#xdb;" horiz-adv-x="1185" d="M100 457l144 825h190l-145 -836q-29 -162 20 -226t234 -64q131 0 192.5 65.5t89.5 222.5l146 838h186l-151 -858q-43 -242 -157 -340t-317 -98q-272 0 -374.5 112.5t-57.5 358.5zM403 1364l254 254h217l164 -254h-176l-112 147l-162 -147h-185z" />
<glyph unicode="&#xdc;" horiz-adv-x="1185" d="M100 457l144 825h190l-145 -836q-29 -162 20 -226t234 -64q131 0 192.5 65.5t89.5 222.5l146 838h186l-151 -858q-43 -242 -157 -340t-317 -98q-272 0 -374.5 112.5t-57.5 358.5zM465 1364l33 195h174l-33 -195h-174zM805 1364l33 195h174l-33 -195h-174z" />
<glyph unicode="&#xdd;" horiz-adv-x="1091" d="M125 1282h203l233 -543l430 543h203l-565 -707l-101 -575h-190l102 578zM529 1364l315 254h223l-342 -254h-196z" />
<glyph unicode="&#xde;" d="M25 0l225 1282h190l-39 -229h261q201 0 311 -85t94 -261q-12 -209 -133 -307.5t-307 -98.5h-359l-53 -301h-190zM297 465h336q229 0 241 229q6 94 -52 143.5t-185 49.5h-264z" />
<glyph unicode="&#xdf;" horiz-adv-x="1093" d="M4 0l168 952q37 205 145.5 298t303.5 93q418 0 417 -280q0 -254 -194 -336q72 -23 112.5 -89.5t40.5 -166.5q0 -47 -8 -94q-33 -190 -119 -287.5t-264 -97.5q-170 0 -245.5 68.5t-75.5 220.5l174 24q-4 -82 29.5 -117.5t129.5 -35.5q82 0 124 55t65 178q8 41 8 86 q0 86 -50 125t-169 39h-88l29 166h116q190 0 191 225q0 156 -228 156q-217 0 -258 -224l-170 -958h-184z" />
<glyph unicode="&#xe0;" horiz-adv-x="952" d="M23 283q0 70 30 229q72 401 365 401q197 0 268 -108l16 94h181l-160 -899h-180l18 96q-98 -104 -239 -104q-164 0 -231.5 76t-67.5 215zM211 307q0 -76 39 -114.5t133 -38.5q109 0 160 67.5t75 198.5l13 72q10 54 10 96q0 62 -21 100q-36 63 -174 64q-96 0 -140 -62.5 t-70 -204.5q-25 -121 -25 -178zM248 1262h209l225 -254h-182z" />
<glyph unicode="&#xe1;" horiz-adv-x="952" d="M23 283q0 70 30 229q72 401 365 401q197 0 268 -108l16 94h181l-160 -899h-180l18 96q-98 -104 -239 -104q-164 0 -231.5 76t-67.5 215zM211 307q0 -76 39 -114.5t133 -38.5q109 0 160 67.5t75 198.5l13 72q10 54 10 96q0 62 -21 100q-36 63 -174 64q-96 0 -140 -62.5 t-70 -204.5q-25 -121 -25 -178zM400 1008l315 254h223l-342 -254h-196z" />
<glyph unicode="&#xe2;" horiz-adv-x="952" d="M23 283q0 70 30 229q72 401 365 401q197 0 268 -108l16 94h181l-160 -899h-180l18 96q-98 -104 -239 -104q-164 0 -231.5 76t-67.5 215zM211 307q0 -76 39 -114.5t133 -38.5q109 0 160 67.5t75 198.5l13 72q10 54 10 96q0 62 -21 100q-36 63 -174 64q-96 0 -140 -62.5 t-70 -204.5q-25 -121 -25 -178zM228 1008l254 254h217l164 -254h-177l-112 147l-162 -147h-184z" />
<glyph unicode="&#xe3;" horiz-adv-x="952" d="M23 283q0 70 30 229q72 401 365 401q197 0 268 -108l16 94h181l-160 -899h-180l18 96q-98 -104 -239 -104q-164 0 -231.5 76t-67.5 215zM211 307q0 -76 39 -114.5t133 -38.5q109 0 160 67.5t75 198.5l13 72q10 54 10 96q0 62 -21 100q-36 63 -174 64q-96 0 -140 -62.5 t-70 -204.5q-25 -121 -25 -178zM232 1026q49 213 196 213q66 0 151 -45t105 -45q55 0 74 90l145 -18q-27 -104 -69.5 -158.5t-126.5 -54.5q-68 0 -154 45t-104 45q-31 0 -48.5 -19.5t-27.5 -70.5z" />
<glyph unicode="&#xe4;" horiz-adv-x="952" d="M23 283q0 70 30 229q72 401 365 401q197 0 268 -108l16 94h181l-160 -899h-180l18 96q-98 -104 -239 -104q-164 0 -231.5 76t-67.5 215zM211 307q0 -76 39 -114.5t133 -38.5q109 0 160 67.5t75 198.5l13 72q10 54 10 96q0 62 -21 100q-36 63 -174 64q-96 0 -140 -62.5 t-70 -204.5q-25 -121 -25 -178zM289 1008l33 194h174l-33 -194h-174zM629 1008l33 194h174l-33 -194h-174z" />
<glyph unicode="&#xe5;" horiz-adv-x="952" d="M23 283q0 70 30 229q72 401 365 401q197 0 268 -108l16 94h181l-160 -899h-180l18 96q-98 -104 -239 -104q-164 0 -231.5 76t-67.5 215zM211 307q0 -76 39 -114.5t133 -38.5q109 0 160 67.5t75 198.5l13 72q10 54 10 96q0 62 -21 100q-36 63 -174 64q-96 0 -140 -62.5 t-70 -204.5q-25 -121 -25 -178zM383 1159q0 92 53.5 151.5t155.5 59.5q176 0 176 -149q0 -94 -52 -153.5t-155 -59.5q-178 -1 -178 151zM490 1174q0 -74 80 -74q45 0 69.5 28.5t24.5 77.5q0 72 -80 72q-94 0 -94 -104z" />
<glyph unicode="&#xe6;" horiz-adv-x="1464" d="M23 276q0 74 30 236q72 401 365 401q197 0 268 -108l16 94h142l-13 -68q94 82 224 82q328 0 327 -292q0 -47 -10 -113l-18 -115h-570q-2 -25 -2 -57q0 -193 191 -193q78 0 119 31t63 96l170 -37q-84 -242 -369 -241q-182 0 -254 108l-16 -100h-143l18 96 q-98 -104 -239 -104q-164 0 -231.5 74.5t-67.5 209.5zM211 307q0 -76 39 -114.5t133 -38.5q109 0 160 67.5t75 198.5l13 72q25 133 -11 196.5t-174 63.5q-96 0 -140 -62.5t-70 -204.5q-25 -121 -25 -178zM813 547h389q2 18 2 55q0 76 -38 115t-134 39q-94 0 -143 -50 t-76 -159z" />
<glyph unicode="&#xe7;" horiz-adv-x="884" d="M16 328q0 57 19 178q35 201 142.5 304t279.5 103q348 0 348 -317l-189 -31q8 96 -29.5 141.5t-142.5 45.5q-102 0 -148 -62.5t-75 -204.5q-18 -94 -18 -147q0 -188 178 -188q82 0 128 40.5t71 133.5l180 -35q-43 -143 -146.5 -220t-246.5 -77h-9l-39 -58q33 4 50 5 q72 0 119 -33t47 -103q0 -104 -63.5 -153t-160.5 -49q-219 0 -239 123l125 40q4 -37 28.5 -51t81.5 -14q100 0 101 88q0 68 -91 68q-43 0 -73 -15l-84 41l84 123q-228 56 -228 324z" />
<glyph unicode="&#xe8;" horiz-adv-x="870" d="M16 328q0 72 19 178q33 199 141.5 303t280.5 104q340 0 340 -295q0 -49 -11 -110l-20 -115h-567q-4 -25 -4 -57q0 -193 190 -193q78 0 120 31t64 96l172 -37q-84 -242 -372 -241q-353 0 -353 336zM225 547h389q4 41 4 57q0 76 -38.5 115t-135.5 39q-94 0 -144 -52.5 t-75 -158.5zM207 1262h209l225 -254h-182z" />
<glyph unicode="&#xe9;" horiz-adv-x="870" d="M16 328q0 72 19 178q33 199 141.5 303t280.5 104q340 0 340 -295q0 -49 -11 -110l-20 -115h-567q-4 -25 -4 -57q0 -193 190 -193q78 0 120 31t64 96l172 -37q-84 -242 -372 -241q-353 0 -353 336zM225 547h389q4 41 4 57q0 76 -38.5 115t-135.5 39q-94 0 -144 -52.5 t-75 -158.5zM358 1008l316 254h223l-342 -254h-197z" />
<glyph unicode="&#xea;" horiz-adv-x="870" d="M16 328q0 72 19 178q33 199 141.5 303t280.5 104q340 0 340 -295q0 -49 -11 -110l-20 -115h-567q-4 -25 -4 -57q0 -193 190 -193q78 0 120 31t64 96l172 -37q-84 -242 -372 -241q-353 0 -353 336zM186 1008l254 254h217l164 -254h-176l-113 147l-161 -147h-185zM225 547 h389q4 41 4 57q0 76 -38.5 115t-135.5 39q-94 0 -144 -52.5t-75 -158.5z" />
<glyph unicode="&#xeb;" horiz-adv-x="870" d="M16 328q0 72 19 178q33 199 141.5 303t280.5 104q340 0 340 -295q0 -49 -11 -110l-20 -115h-567q-4 -25 -4 -57q0 -193 190 -193q78 0 120 31t64 96l172 -37q-84 -242 -372 -241q-353 0 -353 336zM225 547h389q4 41 4 57q0 76 -38.5 115t-135.5 39q-94 0 -144 -52.5 t-75 -158.5zM248 1008l33 194h174l-33 -194h-174zM588 1008l33 194h174l-33 -194h-174z" />
<glyph unicode="&#xec;" horiz-adv-x="419" d="M-20 1262h208l160 -254h-178zM10 0l160 899h176l-160 -899h-176z" />
<glyph unicode="&#xed;" horiz-adv-x="419" d="M10 0l160 899h176l-160 -899h-176zM180 1008l266 254h224l-299 -254h-191z" />
<glyph unicode="&#xee;" horiz-adv-x="419" d="M-39 1008l254 254h217l164 -254h-176l-113 147l-162 -147h-184zM10 0l160 899h176l-160 -899h-176z" />
<glyph unicode="&#xef;" horiz-adv-x="419" d="M10 0l160 899h176l-160 -899h-176zM23 1008l32 194h174l-32 -194h-174zM362 1008l33 194h174l-32 -194h-175z" />
<glyph unicode="&#xf0;" horiz-adv-x="894" d="M18 371q0 49 17 131q68 399 397 399q127 0 199 -55q-2 72 -33 147l-229 -55l26 147l140 35q-55 80 -117 127l168 103q80 -78 139 -183l209 52l-27 -150l-127 -31q88 -264 19 -610l-6 -37q-84 -399 -418 -399q-197 0 -283 104.5t-74 274.5zM201 338q0 -186 178 -186 q96 0 150.5 62t80.5 198q18 94 19 145q0 90 -42 135t-145 45q-96 0 -146 -61.5t-79 -200.5q-16 -80 -16 -137z" />
<glyph unicode="&#xf1;" horiz-adv-x="944" d="M6 0l158 899h180l-16 -88q106 102 250 102q172 0 226 -83q36 -54 35 -143q0 -47 -10 -103l-102 -584h-180l100 580q5 51 5 82q0 38 -36 63q-37 27 -114 27q-94 0 -149.5 -60.5t-80.5 -197.5l-86 -494h-180zM228 1026q49 213 196 213q66 0 151 -45t105 -45q55 0 74 90 l145 -18q-27 -104 -69.5 -158.5t-126.5 -54.5q-68 0 -154 45t-104 45q-31 0 -48.5 -19.5t-27.5 -70.5z" />
<glyph unicode="&#xf2;" horiz-adv-x="890" d="M16 336q0 51 19 172q74 406 422 405q360 0 360 -331q0 -55 -24 -189q-70 -401 -433 -401q-176 0 -260 95t-84 249zM201 342q0 -190 176 -190q100 0 154.5 64.5t80.5 199.5q18 100 19 153q0 88 -42 135.5t-145 47.5q-98 0 -148 -63.5t-79 -205.5q-16 -82 -16 -141z M217 1262h209l225 -254h-182z" />
<glyph unicode="&#xf3;" horiz-adv-x="890" d="M16 336q0 51 19 172q74 406 422 405q360 0 360 -331q0 -55 -24 -189q-70 -401 -433 -401q-176 0 -260 95t-84 249zM201 342q0 -190 176 -190q100 0 154.5 64.5t80.5 199.5q18 100 19 153q0 88 -42 135.5t-145 47.5q-98 0 -148 -63.5t-79 -205.5q-16 -82 -16 -141z M369 1008l315 254h223l-342 -254h-196z" />
<glyph unicode="&#xf4;" horiz-adv-x="890" d="M16 336q0 51 19 172q74 406 422 405q360 0 360 -331q0 -55 -24 -189q-70 -401 -433 -401q-176 0 -260 95t-84 249zM197 1008l254 254h217l163 -254h-176l-112 147l-162 -147h-184zM201 342q0 -190 176 -190q100 0 154.5 64.5t80.5 199.5q18 100 19 153q0 88 -42 135.5 t-145 47.5q-98 0 -148 -63.5t-79 -205.5q-16 -82 -16 -141z" />
<glyph unicode="&#xf5;" horiz-adv-x="890" d="M16 336q0 51 19 172q74 406 422 405q360 0 360 -331q0 -55 -24 -189q-70 -401 -433 -401q-176 0 -260 95t-84 249zM201 342q0 -190 176 -190q100 0 154.5 64.5t80.5 199.5q18 100 19 153q0 88 -42 135.5t-145 47.5q-98 0 -148 -63.5t-79 -205.5q-16 -82 -16 -141z M201 1026q49 213 196 213q66 0 151 -45t105 -45q55 0 74 90l145 -18q-27 -104 -69.5 -158.5t-126.5 -54.5q-68 0 -154 45t-104 45q-31 0 -48.5 -19.5t-27.5 -70.5z" />
<glyph unicode="&#xf6;" horiz-adv-x="890" d="M16 336q0 51 19 172q74 406 422 405q360 0 360 -331q0 -55 -24 -189q-70 -401 -433 -401q-176 0 -260 95t-84 249zM201 342q0 -190 176 -190q100 0 154.5 64.5t80.5 199.5q18 100 19 153q0 88 -42 135.5t-145 47.5q-98 0 -148 -63.5t-79 -205.5q-16 -82 -16 -141z M258 1008l33 194h174l-33 -194h-174zM598 1008l33 194h174l-33 -194h-174z" />
<glyph unicode="&#xf7;" horiz-adv-x="1044" d="M104 555v162h850v-162h-850zM428 207v194h201v-194h-201zM428 870v195h201v-195h-201z" />
<glyph unicode="&#xf8;" horiz-adv-x="882" d="M-43 -61l125 167q-66 90 -66 230q0 51 19 172q74 406 422 405q102 0 184 -30l72 94h157l-125 -168q72 -84 72 -227q0 -55 -24 -189q-70 -401 -433 -401q-104 0 -178 35l-65 -88h-160zM195 340q0 -57 6 -80l344 481q-41 12 -99 13q-102 0 -153 -64.5t-80 -206.5 q-18 -92 -18 -143zM276 164q39 -16 101 -17q102 0 157.5 66t81.5 203q20 111 21 153q0 55 -10 86z" />
<glyph unicode="&#xf9;" horiz-adv-x="944" d="M53 317l103 582h180l-103 -580q-5 -51 -5 -79q0 -36 36 -61q37 -26 115 -25q96 0 150.5 58t78.5 196l86 491h180l-157 -899h-180l14 90q-106 -98 -248 -98q-174 0 -226 81q-34 52 -34 139q0 47 10 105zM244 1262h209l225 -254h-182z" />
<glyph unicode="&#xfa;" horiz-adv-x="944" d="M53 317l103 582h180l-103 -580q-4 -41 -5 -77.5t36 -62t115 -25.5q96 0 150.5 58t78.5 196l86 491h180l-157 -899h-180l14 90q-106 -98 -248 -98q-174 0 -226.5 80.5t-23.5 244.5zM395 1008l316 254h223l-342 -254h-197z" />
<glyph unicode="&#xfb;" horiz-adv-x="944" d="M53 317l103 582h180l-103 -580q-4 -41 -5 -77.5t36 -62t115 -25.5q96 0 150.5 58t78.5 196l86 491h180l-157 -899h-180l14 90q-106 -98 -248 -98q-174 0 -226.5 80.5t-23.5 244.5zM223 1008l254 254h217l164 -254h-176l-113 147l-161 -147h-185z" />
<glyph unicode="&#xfc;" horiz-adv-x="944" d="M53 317l103 582h180l-103 -580q-4 -41 -5 -77.5t36 -62t115 -25.5q96 0 150.5 58t78.5 196l86 491h180l-157 -899h-180l14 90q-106 -98 -248 -98q-174 0 -226.5 80.5t-23.5 244.5zM285 1008l32 194h175l-33 -194h-174zM625 1008l32 194h174l-32 -194h-174z" />
<glyph unicode="&#xfd;" horiz-adv-x="815" d="M-90 -365l27 158h69q61 0 86 21.5t60 91.5l53 100l-135 893h186l86 -639l311 639h187l-543 -1071q-55 -106 -114.5 -149.5t-159.5 -43.5h-113zM330 1008l315 254h223l-342 -254h-196z" />
<glyph unicode="&#xfe;" horiz-adv-x="958" d="M-57 -365l299 1708h180l-94 -538q90 109 247 108q178 0 242 -89t49 -251q0 -66 -22 -176q-35 -199 -121 -302t-244 -103q-201 0 -274 112l-82 -469h-180zM258 412q-25 -129 13 -194.5t182 -65.5q94 0 138 63.5t71 204.5q25 109 24 176q0 78 -39 117t-133 39 q-109 0 -164 -70t-80 -197z" />
<glyph unicode="&#xff;" horiz-adv-x="815" d="M-90 -365l27 158h69q61 0 86 21.5t60 91.5l53 100l-135 893h186l86 -639l311 639h187l-543 -1071q-55 -106 -114.5 -149.5t-159.5 -43.5h-113zM219 1008l33 194h174l-33 -194h-174zM559 1008l33 194h174l-33 -194h-174z" />
<glyph unicode="&#x152;" horiz-adv-x="1783" d="M55 465q0 94 27 254q49 276 181 424.5t376 148.5q268 0 362 -157l27 147h778l-30 -172h-607l-55 -322h543l-29 -170h-545l-77 -448h604l-29 -170h-778l20 109q-113 -117 -301 -117q-246 0 -356.5 129t-110.5 344zM246 467q0 -307 289 -307q145 0 233 101t129 312 q33 174 33 254q0 143 -69.5 218t-227.5 75q-152 0 -234 -101t-123 -317q-30 -165 -30 -235z" />
<glyph unicode="&#x153;" horiz-adv-x="1456" d="M16 336q0 51 19 172q74 406 422 405q217 0 295 -131q100 131 288 131q340 0 340 -295q0 -49 -10 -110l-20 -115h-570q-2 -25 -2 -57q0 -193 191 -193q78 0 119.5 31t64.5 96l170 -37q-84 -242 -371 -241q-217 0 -288 133q-102 -133 -304 -133q-176 0 -260 95t-84 249z M201 342q0 -190 176 -190q100 0 154.5 64.5t80.5 199.5q20 111 21 153q0 88 -43 135.5t-146 47.5q-98 0 -148 -63.5t-77 -205.5q-18 -92 -18 -141zM809 547h389q4 41 4 57q0 76 -39 114t-135 38q-94 0 -143 -51.5t-76 -157.5z" />
<glyph unicode="&#x178;" horiz-adv-x="1091" d="M125 1282h203l233 -543l430 543h203l-565 -707l-101 -575h-190l102 578zM418 1364l33 194h174l-33 -194h-174zM758 1364l33 194h174l-33 -194h-174z" />
<glyph unicode="&#x2c6;" horiz-adv-x="1064" d="M283 1008l254 254h217l164 -254h-177l-112 147l-162 -147h-184z" />
<glyph unicode="&#x2da;" horiz-adv-x="1064" d="M438 1159q0 92 53.5 151.5t155.5 59.5q176 0 176 -149q0 -94 -52 -153.5t-155 -59.5q-178 -1 -178 151zM545 1174q0 -74 80 -74q45 0 69.5 28.5t24.5 77.5q0 72 -80 72q-94 0 -94 -104z" />
<glyph unicode="&#x2dc;" horiz-adv-x="1064" d="M287 1026q49 213 196 213q66 0 151 -45t105 -45q55 0 74 90l145 -18q-27 -104 -69.5 -158.5t-126.5 -54.5q-68 0 -154 45t-104 45q-31 0 -48.5 -19.5t-27.5 -70.5z" />
<glyph unicode="&#x2000;" horiz-adv-x="808" />
<glyph unicode="&#x2001;" horiz-adv-x="1617" />
<glyph unicode="&#x2002;" horiz-adv-x="808" />
<glyph unicode="&#x2003;" horiz-adv-x="1617" />
<glyph unicode="&#x2004;" horiz-adv-x="538" />
<glyph unicode="&#x2005;" horiz-adv-x="403" />
<glyph unicode="&#x2006;" horiz-adv-x="268" />
<glyph unicode="&#x2007;" horiz-adv-x="268" />
<glyph unicode="&#x2008;" horiz-adv-x="200" />
<glyph unicode="&#x2009;" horiz-adv-x="323" />
<glyph unicode="&#x200a;" horiz-adv-x="88" />
<glyph unicode="&#x2010;" horiz-adv-x="737" d="M25 455l30 163h625l-31 -163h-624z" />
<glyph unicode="&#x2011;" horiz-adv-x="737" d="M25 455l30 163h625l-31 -163h-624z" />
<glyph unicode="&#x2012;" horiz-adv-x="737" d="M25 455l30 163h625l-31 -163h-624z" />
<glyph unicode="&#x2013;" horiz-adv-x="1101" d="M25 455l30 163h989l-30 -163h-989z" />
<glyph unicode="&#x2014;" horiz-adv-x="1447" d="M25 455l30 163h1336l-31 -163h-1335z" />
<glyph unicode="&#x2018;" horiz-adv-x="446" d="M176 887l35 200q18 100 63 145.5t156 49.5l-14 -94q-55 -8 -73.5 -26.5t-29.5 -74.5h84l-35 -200h-186z" />
<glyph unicode="&#x2019;" horiz-adv-x="446" d="M176 887l17 94q55 8 73.5 26.5t28.5 75.5h-84l33 199h186l-33 -199q-18 -102 -63 -147t-158 -49z" />
<glyph unicode="&#x201a;" horiz-adv-x="446" d="M-14 -195l14 95q53 6 73.5 25.5t30.5 74.5h-86l37 201h187l-37 -201q-16 -100 -61 -146.5t-158 -48.5z" />
<glyph unicode="&#x201c;" horiz-adv-x="761" d="M176 889l35 201q18 100 62 144t157 48l-16 -92q-53 -8 -72.5 -26.5t-30.5 -73.5h84l-35 -201h-184zM496 889l34 201q18 100 61.5 144t156.5 48l-17 -92q-53 -8 -72.5 -26.5t-29.5 -73.5h84l-35 -201h-182z" />
<glyph unicode="&#x201d;" horiz-adv-x="761" d="M176 889l17 92q55 8 73.5 26.5t28.5 75.5h-84l33 199h186l-35 -199q-18 -100 -62 -145t-157 -49zM496 889l14 92q55 8 73.5 27.5t28.5 74.5h-84l35 199h185l-35 -199q-18 -100 -62 -145t-155 -49z" />
<glyph unicode="&#x201e;" horiz-adv-x="761" d="M-14 -195l14 95q53 6 73.5 25.5t30.5 74.5h-86l37 201h185l-35 -201q-18 -100 -62 -145.5t-157 -49.5zM303 -195l16 95q53 6 73 25.5t30 74.5h-84l37 201h182l-35 -201q-18 -100 -62 -145.5t-157 -49.5z" />
<glyph unicode="&#x2022;" horiz-adv-x="905" d="M188 686l11 49q31 145 100.5 221t198.5 76q307 0 239 -336l-10 -51q-29 -145 -99.5 -220t-203.5 -75q-154 0 -210.5 95.5t-25.5 240.5z" />
<glyph unicode="&#x2026;" horiz-adv-x="1216" d="M6 0l39 221h201l-39 -221h-201zM397 0l39 221h201l-39 -221h-201zM788 0l39 221h201l-39 -221h-201z" />
<glyph unicode="&#x202f;" horiz-adv-x="323" />
<glyph unicode="&#x2039;" horiz-adv-x="509" d="M14 451l308 448h186l-307 -448l147 -451h-186z" />
<glyph unicode="&#x203a;" horiz-adv-x="509" d="M-61 0l307 451l-148 448h187l147 -448l-307 -451h-186z" />
<glyph unicode="&#x205f;" horiz-adv-x="403" />
<glyph unicode="&#x20ac;" horiz-adv-x="1277" d="M57 426l29 156h174l21 133h-172l26 155h178q117 422 480 422q238 0 332 -100t94 -279l-203 -26q4 121 -43 179t-185 58q-113 0 -175 -61.5t-103 -192.5h313l-26 -155h-326q0 -4 -1 -8.5t-1 -6.5q-2 -8 -23 -118h328l-29 -156h-311v-4q0 -131 57.5 -197.5t190.5 -66.5 q104 0 164.5 63.5t99.5 194.5l187 -27q-47 -180 -164 -288.5t-299 -108.5q-422 0 -422 428v6h-191z" />
<glyph unicode="&#x2122;" horiz-adv-x="1396" d="M223 1161l21 121h497l-20 -121h-182l-93 -520h-137l92 520h-178zM700 641l113 641h178l70 -459l235 459h179l-113 -641h-133l74 422l-213 -422h-123l-64 422l-74 -422h-129z" />
<glyph unicode="&#xe000;" horiz-adv-x="900" d="M0 900h900v-900h-900v900z" />
<glyph unicode="&#xfb01;" horiz-adv-x="1028" d="M39 733l31 166h174l24 141q29 158 101.5 230.5t248.5 72.5h99l-29 -165h-70q-94 0 -126.5 -39t-49.5 -129l-20 -111h215l-29 -166h-215l-127 -733h-180l127 733h-174zM594 0l158 899h180l-158 -899h-180zM772 1034l37 205h186l-37 -205h-186z" />
<glyph unicode="&#xfb02;" horiz-adv-x="1028" d="M39 733l31 166h174l24 141q29 158 101.5 230.5t248.5 72.5h99l-29 -165h-70q-94 0 -126.5 -39t-49.5 -129l-20 -111h215l-29 -166h-215l-127 -733h-180l127 733h-174zM594 0l237 1343h181l-238 -1343h-180z" />
<glyph unicode="&#xfb03;" horiz-adv-x="1658" d="M1247 0l158 899h180l-158 -899h-180zM1425 1034l37 205h187l-37 -205h-187zM657 733l31 166h174l24 141q29 158 101.5 230.5t248.5 72.5h105l-29 -165h-76q-94 0 -126.5 -39t-49.5 -129l-20 -111h223l-31 -166h-221l-127 -733h-180l127 733h-174zM39 733l31 166h174 l24 141q29 158 101.5 230.5t248.5 72.5h105l-29 -165h-76q-94 0 -126.5 -39t-49.5 -129l-20 -111h223l-31 -166h-221l-127 -733h-180l127 733h-174z" />
<glyph unicode="&#xfb04;" horiz-adv-x="1658" d="M1247 0l238 1343h180l-238 -1343h-180zM657 733l31 166h174l24 141q29 158 101.5 230.5t248.5 72.5h105l-29 -165h-76q-94 0 -126.5 -39t-49.5 -129l-20 -111h223l-31 -166h-221l-127 -733h-180l127 733h-174zM39 733l31 166h174l24 141q29 158 101.5 230.5t248.5 72.5 h105l-29 -165h-76q-94 0 -126.5 -39t-49.5 -129l-20 -111h223l-31 -166h-221l-127 -733h-180l127 733h-174z" />
</font>
</defs>
</svg>
