<?xml version="1.0" standalone="no"?>
<!DOCTYPE svg PUBLIC "-//W3C//DTD SVG 1.1//EN" "http://www.w3.org/Graphics/SVG/1.1/DTD/svg11.dtd" >
<svg xmlns="http://www.w3.org/2000/svg">
<metadata>
This is a custom SVG webfont generated by Font Squirrel.
Copyright   : c Copyright 2006 The Font Bureau Inc Designed by Cyrus Highsmith All Rights Reserved
Designer    : Cyrus Highsmith
Foundry     : The Font Bureau Inc
Foundry URL : httpwwwfontbureaucom
</metadata>
<defs>
<font id="ScoutLight" horiz-adv-x="864" >
<font-face units-per-em="2048" ascent="1638" descent="-410" />
<missing-glyph horiz-adv-x="389" />
<glyph unicode=" "  horiz-adv-x="389" />
<glyph unicode="&#x09;" horiz-adv-x="389" />
<glyph unicode="&#xa0;" horiz-adv-x="389" />
<glyph unicode="!" horiz-adv-x="518" d="M193 0v164h133v-164h-133zM193 1069v213h133v-213l-19 -729h-96z" />
<glyph unicode="&#x22;" horiz-adv-x="845" d="M193 1073v209h133v-209l-19 -278h-96zM520 1073v209h133v-209l-18 -278h-96z" />
<glyph unicode="#" horiz-adv-x="1228" d="M131 418v108h223l21 236h-244v108h254l37 412h119l-37 -412h258l37 412h119l-37 -412h217v-108h-228l-20 -236h248v-108h-256l-37 -418h-119l37 418h-258l-37 -418h-119l37 418h-215zM473 526h258l21 236h-258z" />
<glyph unicode="$" horiz-adv-x="1077" d="M80 307l127 37q53 -211 276 -235v518q-88 29 -137 51t-100 62t-73.5 98.5t-22.5 140.5q0 129 87 211t242 96v195h117v-195q256 -25 330 -256l-129 -45q-41 164 -205 184v-448q184 -63 267 -139t83 -238t-104.5 -248t-241.5 -100v-234h-117v232q-315 24 -399 313zM274 975 q0 -88 48.5 -132t160.5 -85v413q-104 -10 -156.5 -61t-52.5 -135zM592 109q227 31 227 241q0 98 -57 149.5t-170 92.5v-483z" />
<glyph unicode="%" horiz-adv-x="1507" d="M82 893v43q0 356 262 356q264 0 264 -350v-45q0 -164 -64.5 -260t-199.5 -96t-198.5 95t-63.5 257zM188 897q0 -254 156 -254q158 0 158 250v47q0 129 -35 188.5t-123 59.5t-122 -59.5t-34 -188.5v-43zM410 0l563 1282h123l-564 -1282h-122zM899 344v43q0 356 262 356 q264 0 264 -350v-45q0 -164 -64.5 -260t-199.5 -96t-198.5 95t-63.5 257zM1006 348q0 -254 155 -254q158 0 158 250v47q0 129 -35 188.5t-123 59.5t-121.5 -59.5t-33.5 -188.5v-43z" />
<glyph unicode="&#x26;" horiz-adv-x="1165" d="M51 319q0 74 24.5 138.5t77 123t93.5 93.5t114 90q-68 88 -98.5 150.5t-30.5 129.5q0 248 256 248q127 0 187.5 -58t60.5 -187q0 -82 -53 -153t-152 -151l258 -331q27 98 52 313l127 -12q-33 -279 -86 -420l229 -293h-149l-138 174q-123 -182 -413 -182q-359 -1 -359 327 zM176 319q0 -209 242 -208q127 0 203.5 39.5t119.5 128.5l-311 399q-82 -63 -128 -105.5t-86 -111t-40 -142.5zM354 1044q0 -74 109 -215q152 123 151 218q0 66 -28.5 98.5t-102 32.5t-101.5 -33t-28 -101z" />
<glyph unicode="'" horiz-adv-x="518" d="M193 1073v209h133v-209l-19 -278h-96z" />
<glyph unicode="(" horiz-adv-x="622" d="M111 451q0 580 360 831l76 -94q-311 -225 -311 -737q0 -514 311 -740l-76 -92q-360 257 -360 832z" />
<glyph unicode=")" horiz-adv-x="622" d="M76 -289q311 225 311 740q0 512 -311 737l76 94q360 -252 360 -831q0 -575 -360 -832z" />
<glyph unicode="*" horiz-adv-x="804" d="M61 743l254 164l-254 166l70 98l221 -170l-8 281h117l-8 -281l221 170l69 -98l-254 -166l254 -164l-69 -98l-221 170l8 -280h-117l8 280l-221 -170z" />
<glyph unicode="+" horiz-adv-x="1030" d="M111 582v108h348v369h112v-369h349v-108h-349v-369h-112v369h-348z" />
<glyph unicode="," horiz-adv-x="395" d="M131 0v168h133v-168q0 -86 -24.5 -128t-108.5 -48v65q43 8 53.5 29t10.5 82h-64z" />
<glyph unicode="-" horiz-adv-x="763" d="M70 469v109h624v-109h-624z" />
<glyph unicode="." horiz-adv-x="395" d="M131 0v168h133v-168h-133z" />
<glyph unicode="/" horiz-adv-x="690" d="M0 0l563 1282h127l-563 -1282h-127z" />
<glyph unicode="0" horiz-adv-x="1140" d="M129 604v74q0 145 17.5 248.5t63.5 190.5t136 131t223 44q135 0 225.5 -43t136.5 -129t63.5 -188.5t17.5 -247.5v-78q0 -291 -99.5 -452.5t-343.5 -161.5q-242 0 -341 160.5t-99 451.5zM254 606q0 -242 66.5 -369.5t248.5 -127.5q96 0 161 35.5t97.5 106.5t46 153.5 t13.5 199.5v78q0 98 -5 163.5t-23.5 133.5t-52.5 106.5t-93.5 63.5t-143.5 25t-142 -25t-92 -65t-52.5 -107.5t-23.5 -133t-5 -163.5v-74z" />
<glyph unicode="1" horiz-adv-x="778" d="M90 1165v117h432v-1282h-123v1165h-309z" />
<glyph unicode="2" horiz-adv-x="1056" d="M115 1004q80 289 430 288q176 0 275.5 -74.5t99.5 -220.5q0 -143 -61.5 -226t-262.5 -212q-209 -135 -278.5 -224t-71.5 -218h676v-117h-805v92q0 184 93 300t325 263q166 104 213 170t47 162q0 100 -61.5 143.5t-188.5 43.5q-135 0 -203 -45.5t-92 -143.5z" />
<glyph unicode="3" horiz-adv-x="1079" d="M115 330l133 18q12 -137 85 -187t216 -50q147 0 217 60t70 210v25q0 127 -78 176t-228 49h-165v119h165q143 0 207 49t64 153v19q0 100 -59.5 151.5t-196.5 51.5q-141 0 -205 -48.5t-90 -140.5l-133 29q82 279 428 278q381 0 381 -319v-19q0 -82 -43 -152.5t-121 -105.5 q82 -20 140.5 -87.5t58.5 -200.5v-27q0 -186 -101.5 -287.5t-310.5 -101.5q-211 0 -309 82t-125 256z" />
<glyph unicode="4" horiz-adv-x="1134" d="M84 330v116l610 836h135v-836h215v-116h-215v-330h-122v330h-623zM225 446h482v660z" />
<glyph unicode="5" horiz-adv-x="1075" d="M111 330l133 18q12 -133 92 -185t213 -52q283 0 282 313v51q0 174 -65.5 242.5t-214.5 68.5q-115 0 -175.5 -24.5t-101.5 -77.5l-116 43l55 555h661v-117h-550l-33 -338q100 78 289 78q213 0 294.5 -111.5t81.5 -318.5v-53q0 -82 -17 -151.5t-59 -135t-127 -104.5 t-204 -39q-385 0 -438 338z" />
<glyph unicode="6" horiz-adv-x="1085" d="M129 418v145q0 111 1 172.5t9 151.5t24.5 139t48.5 107.5t77 88t113.5 50t156.5 20.5q297 0 373 -209l-139 -26q-27 68 -84.5 92.5t-157.5 24.5q-164 0 -224.5 -88.5t-72.5 -303.5q102 119 330 119q201 0 297 -101.5t96 -324.5v-53q0 -430 -424 -430q-221 0 -322.5 108.5 t-101.5 317.5zM252 424q0 -150 65.5 -232.5t235.5 -82.5q168 0 233.5 81.5t65.5 233.5v51q0 156 -60.5 233.5t-238.5 77.5q-176 0 -238.5 -79.5t-62.5 -233.5v-49z" />
<glyph unicode="7" horiz-adv-x="935" d="M70 1174v108h755v-108l-446 -1174h-127l446 1174h-628z" />
<glyph unicode="8" horiz-adv-x="1124" d="M119 365v24q0 236 190 311q-156 68 -155 256v21q0 150 93 232.5t314 82.5q225 0 317.5 -83t92.5 -232v-21q0 -190 -154 -258q188 -74 189 -309v-24q0 -188 -109 -280.5t-336 -92.5q-442 0 -442 373zM244 365q0 -254 317 -254q319 0 320 254v24q0 254 -320 254 q-317 0 -317 -254v-24zM279 956q0 -201 282 -200q147 0 216 49t69 151v21q0 197 -285 197q-283 0 -282 -197v-21z" />
<glyph unicode="9" horiz-adv-x="1085" d="M109 809v53q0 430 423 430q221 0 322.5 -108.5t101.5 -317.5v-145q0 -111 -1 -172.5t-9 -151.5t-24.5 -139t-48 -107.5t-76.5 -88t-114 -50t-157 -20.5q-297 0 -372 209l139 26q27 -68 84 -92t158 -24q162 0 223 88t71 301q-98 -117 -327 -117q-201 0 -297 101.5 t-96 324.5zM233 809q0 -156 60.5 -233.5t238.5 -77.5q176 0 239 79.5t63 233.5v49q0 150 -66 233t-236 83q-168 0 -233.5 -82t-65.5 -234v-51z" />
<glyph unicode=":" horiz-adv-x="395" d="M131 0v168h133v-168h-133zM131 717v168h133v-168h-133z" />
<glyph unicode=";" horiz-adv-x="395" d="M131 0v168h133v-168q0 -86 -24.5 -128t-108.5 -48v65q43 8 53.5 29t10.5 82h-64zM131 717v168h133v-168h-133z" />
<glyph unicode="&#x3c;" horiz-adv-x="1030" d="M152 580v110l706 348v-112l-598 -291l598 -291v-113z" />
<glyph unicode="=" horiz-adv-x="1030" d="M131 397v109h768v-109h-768zM131 741v109h768v-109h-768z" />
<glyph unicode="&#x3e;" horiz-adv-x="1030" d="M172 231v113l598 291l-598 291v112l707 -348v-110z" />
<glyph unicode="?" horiz-adv-x="948" d="M61 1004q92 289 428 288q184 0 280.5 -78.5t96.5 -220.5q0 -68 -32.5 -135t-57 -95t-92.5 -97q-70 -74 -106.5 -135.5t-36.5 -143.5v-47h-121v43q0 78 27.5 147.5t57.5 107.5t83 93q102 104 127 152q27 51 26 104q0 186 -252 187q-121 0 -191.5 -42t-100.5 -147zM418 0 v164h133v-164h-133z" />
<glyph unicode="@" horiz-adv-x="1601" d="M131 459q0 131 17.5 239.5t64.5 212t124 174t202 113.5t290.5 43t285.5 -44t187.5 -111.5t106.5 -176t50 -210t11 -240.5q0 -84 -9 -142.5t-34.5 -112.5t-79 -81t-135.5 -27q-203 0 -231 129q-90 -131 -262 -131q-145 0 -205.5 64.5t-60.5 183.5q0 61 28 211 q41 184 111 266t205 82q180 0 243 -104l17 92h110l-92 -514q-16 -100 18.5 -136t118.5 -36q49 0 81 18.5t45.5 59.5t17.5 77.5t4 100.5q0 86 -3 150.5t-16.5 139t-35 127t-61.5 104.5t-95 84t-136 51.5t-184 19.5q-141 0 -247.5 -37t-170 -97.5t-102.5 -150.5t-52 -182.5 t-13 -208.5q0 -115 14 -207t53 -180t102.5 -146.5t169 -94.5t246.5 -36q324 0 459 156l84 -78q-70 -84 -212 -134t-331 -50q-166 0 -291.5 42t-201.5 110.5t-123 171t-64.5 209t-17.5 237.5zM567 354q0 -78 39 -115.5t137 -37.5q111 0 163 69.5t77 198.5l10 61 q8 76 10.5 135.5t-46 95.5t-152.5 36q-98 0 -142.5 -61.5t-70.5 -196.5q-25 -119 -25 -185z" />
<glyph unicode="A" horiz-adv-x="1077" d="M47 0l428 1292h127l428 -1292h-125l-117 352h-505l-117 -352h-119zM319 463h433l-217 653z" />
<glyph unicode="B" horiz-adv-x="1144" d="M150 0v1282h481q184 0 280.5 -70.5t96.5 -248.5q0 -203 -170 -269q92 -41 146 -124t54 -199q0 -182 -100 -276.5t-276 -94.5h-512zM272 119h398q123 0 184 71.5t61 184.5q0 115 -65.5 186.5t-179.5 71.5h-398v-514zM272 750h367q246 0 246 206q0 106 -58.5 156.5 t-187.5 50.5h-367v-413z" />
<glyph unicode="C" horiz-adv-x="1097" d="M88 604v74q0 293 110.5 453.5t376.5 160.5q207 0 304.5 -95t136.5 -286l-137 -18q-18 135 -88 208t-218 73q-205 0 -282.5 -127t-77.5 -367v-74q0 -250 81 -373.5t279 -123.5q152 0 222.5 70.5t95.5 209.5l133 -18q-80 -379 -457 -379q-262 0 -370.5 160.5t-108.5 451.5z " />
<glyph unicode="D" horiz-adv-x="1101" d="M150 0v1282h376q125 0 216.5 -36t142.5 -91t80.5 -139t39 -160t9.5 -174v-80q0 -602 -486 -602h-378zM272 117h256q199 0 280 120.5t81 366.5v78q0 258 -80 369.5t-283 111.5h-254v-1046z" />
<glyph unicode="E" horiz-adv-x="1032" d="M150 0v1282h761v-119h-639v-395h578v-119h-578v-532h639v-117h-761z" />
<glyph unicode="F" horiz-adv-x="970" d="M150 0v1282h761v-119h-639v-395h578v-119h-578v-649h-122z" />
<glyph unicode="G" horiz-adv-x="1169" d="M88 604v74q0 293 110.5 453.5t376.5 160.5q207 0 303.5 -85t137.5 -261l-137 -18q-25 131 -90.5 188.5t-215.5 57.5q-205 0 -282.5 -127t-77.5 -367v-74q0 -250 81 -373.5t279 -123.5q160 0 249 90t93 268v100h-358v117h479v-684h-84l-32 147q-119 -156 -353 -155 q-262 0 -370.5 160.5t-108.5 451.5z" />
<glyph unicode="H" horiz-adv-x="1165" d="M150 0v1282h122v-500h621v500h123v-1282h-123v664h-621v-664h-122z" />
<glyph unicode="I" horiz-adv-x="430" d="M154 0v1282h122v-1282h-122z" />
<glyph unicode="J" horiz-adv-x="921" d="M53 395l125 21q16 -182 75.5 -249t180.5 -67t171 66.5t50 249.5v866h123v-864q0 -244 -84 -339t-266 -95q-355 -1 -375 411z" />
<glyph unicode="K" horiz-adv-x="1103" d="M150 0v1282h122v-584l592 584h154l-430 -428l450 -854h-135l-403 766l-228 -225v-541h-122z" />
<glyph unicode="L" horiz-adv-x="970" d="M150 0v1282h122v-1165h639v-117h-761z" />
<glyph unicode="M" horiz-adv-x="1474" d="M150 0v1282h178l409 -1116l410 1116h178v-1282h-123v1104l-405 -1104h-123l-406 1104v-1104h-118z" />
<glyph unicode="N" horiz-adv-x="1165" d="M150 0v1282h176l571 -1036v1036h119v-1282h-119l-629 1141v-1141h-118z" />
<glyph unicode="O" horiz-adv-x="1148" d="M88 604v74q0 295 107.5 454.5t377.5 159.5q272 0 380 -156.5t108 -451.5v-78q0 -614 -488 -614q-485 0 -485 612zM213 606q0 -498 360 -497q362 0 363 495v78q0 117 -14.5 200t-53.5 152.5t-111.5 104.5t-183.5 35q-209 0 -284.5 -126t-75.5 -368v-74z" />
<glyph unicode="P" horiz-adv-x="1083" d="M150 0v1282h491q377 0 377 -350q0 -170 -108.5 -264.5t-268.5 -94.5h-369v-573h-122zM272 690h377q117 0 181.5 62.5t64.5 175.5q0 111 -60.5 173t-185.5 62h-377v-473z" />
<glyph unicode="Q" horiz-adv-x="1148" d="M88 604v74q0 295 107.5 454.5t377.5 159.5q272 0 380 -156.5t108 -451.5v-78q0 -397 -207 -536l143 -222l-102 -63l-152 231q-78 -23 -170 -22q-485 0 -485 610zM213 606q0 -498 360 -497q362 0 363 495v78q0 117 -14.5 200t-53.5 152.5t-111.5 104.5t-183.5 35 q-209 0 -284.5 -126t-75.5 -368v-74z" />
<glyph unicode="R" horiz-adv-x="1124" d="M150 0v1282h491q178 0 277.5 -83t99.5 -255q0 -133 -75 -221t-193 -117l288 -606h-135l-282 594h-349v-594h-122zM272 711h377q117 0 181.5 62.5t64.5 166.5q0 102 -61.5 162.5t-184.5 60.5h-377v-452z" />
<glyph unicode="S" horiz-adv-x="1077" d="M61 328l136 16q37 -131 123 -184.5t239 -53.5q123 0 217 56.5t94 187.5q0 49 -21.5 89t-46 63.5t-80.5 48t-87 34t-105 31.5q-88 27 -134 42.5t-106.5 46t-89 64.5t-50 87t-21.5 123q0 143 112.5 228t313.5 85q340 0 428 -288l-141 -19q-51 188 -287 189 q-147 0 -224 -52.5t-77 -146.5q0 -35 7 -62.5t32.5 -51t42 -37t67 -33t74 -26.5t92.5 -30q117 -35 180.5 -60.5t128 -69.5t91 -107.5t26.5 -153.5q0 -94 -42 -166t-110.5 -111.5t-141 -59t-144.5 -19.5q-213 0 -329 84t-167 256z" />
<glyph unicode="T" horiz-adv-x="1048" d="M59 1163v119h930v-119h-403v-1163h-123v1163h-404z" />
<glyph unicode="U" horiz-adv-x="1153" d="M143 436v846h123v-844q0 -193 63.5 -265.5t245.5 -72.5q184 0 250 73t66 263v846h119v-844q0 -248 -102.5 -351t-332.5 -103q-227 0 -329.5 103t-102.5 349z" />
<glyph unicode="V" horiz-adv-x="1077" d="M47 1282h125l369 -1116l370 1116h119l-428 -1292h-127z" />
<glyph unicode="W" horiz-adv-x="1705" d="M96 1282h125l268 -1073l310 1073h114l308 -1071l270 1071h119l-326 -1292h-121l-311 1081l-309 -1081h-121z" />
<glyph unicode="X" horiz-adv-x="1081" d="M53 0l418 688l-362 594h135l299 -491l295 491h131l-361 -596l420 -686h-135l-358 584l-351 -584h-131z" />
<glyph unicode="Y" horiz-adv-x="1071" d="M25 1282h133l379 -594l383 594h127l-451 -700v-582h-123v582z" />
<glyph unicode="Z" horiz-adv-x="1040" d="M109 0v117l675 1046h-665v119h803v-119l-676 -1046h686v-117h-823z" />
<glyph unicode="[" horiz-adv-x="622" d="M150 -365v1647h378v-119h-256v-1411h256v-117h-378z" />
<glyph unicode="\" horiz-adv-x="690" d="M0 1282h127l563 -1282h-127z" />
<glyph unicode="]" horiz-adv-x="622" d="M94 -246h256v1411h-256v117h379v-1647h-379v119z" />
<glyph unicode="^" horiz-adv-x="1024" d="M229 633l209 254h150l209 -254h-121l-166 178l-164 -178h-117z" />
<glyph unicode="_" horiz-adv-x="763" d="M-82 -121h928v-108h-928v108z" />
<glyph unicode="`" horiz-adv-x="1024" d="M199 1262h151l271 -254h-125z" />
<glyph unicode="a" horiz-adv-x="858" d="M76 262q0 164 138 246t409 108v17q0 86 -49.5 119.5t-153.5 33.5q-150 0 -205 -98l-127 41q39 78 129 125t217 47q164 0 234.5 -64.5t70.5 -195.5v-641h-116v119q-82 -127 -273 -127q-274 0 -274 270zM197 260q0 -158 170 -158q143 0 199.5 73t56.5 198v137 q-426 -43 -426 -250z" />
<glyph unicode="b" horiz-adv-x="917" d="M129 0v1343h119v-561q90 119 268 119q188 0 256 -106.5t68 -319.5v-53q0 -203 -74 -316.5t-252 -113.5t-266 104v-96h-119zM248 410q0 -152 52 -229t204 -77q125 0 170 82t45 234v53q0 168 -41 240.5t-174 72.5q-141 0 -196.5 -74.5t-59.5 -213.5v-88z" />
<glyph unicode="c" d="M76 418v51q0 432 358 432q293 0 336 -301l-125 -22q-12 102 -61 155t-152 53q-135 0 -185 -80.5t-50 -234.5v-49q0 -317 235 -318q193 0 219 199l121 -16q-66 -295 -344 -295q-352 0 -352 426z" />
<glyph unicode="d" horiz-adv-x="917" d="M76 416v53q0 205 73.5 318.5t252 113.5t266.5 -104v546h118v-1343h-118v109q-92 -117 -269 -117q-188 0 -255.5 105.5t-67.5 318.5zM197 420q0 -170 41 -243t176 -73q145 0 199.5 81t54.5 235v88q-4 139 -57.5 208.5t-196.5 69.5q-125 0 -171 -80.5t-46 -234.5v-51z" />
<glyph unicode="e" horiz-adv-x="843" d="M76 418v51q0 432 356 432q188 0 263 -102.5t75 -294.5v-90h-575q0 -309 237 -310q102 0 150.5 37t64.5 113l119 -29q-29 -106 -112 -169.5t-222 -63.5q-356 0 -356 426zM195 524h454q-4 137 -50 200.5t-167 63.5q-221 0 -237 -264z" />
<glyph unicode="f" horiz-adv-x="598" d="M29 772v115h184v149q0 158 61.5 232.5t227.5 74.5h63v-112h-61q-59 0 -95 -14.5t-52.5 -46t-20.5 -61.5t-4 -83v-139h233v-115h-233v-772h-119v772h-184z" />
<glyph unicode="g" horiz-adv-x="917" d="M76 416v53q0 205 73.5 318.5t252 113.5t266.5 -104v90h118v-932q0 -164 -77.5 -247t-270.5 -83q-256 0 -346 199l123 41q29 -70 83 -98.5t142 -28.5q119 0 173.5 50t54.5 167v154q-92 -117 -269 -117q-188 0 -255.5 105.5t-67.5 318.5zM197 420q0 -170 41 -243t176 -73 q139 0 194.5 75t59.5 214v88q0 154 -51.5 229.5t-202.5 75.5q-125 0 -171 -80.5t-46 -234.5v-51z" />
<glyph unicode="h" horiz-adv-x="917" d="M129 0v1343h119v-561q92 119 282 119q145 0 206 -76.5t61 -230.5v-594h-119v584q0 45 -4 73.5t-19.5 62.5t-52.5 50t-96 16q-141 0 -199.5 -75.5t-58.5 -237.5v-473h-119z" />
<glyph unicode="i" horiz-adv-x="387" d="M129 1047v172h127v-172h-127zM133 0v887h119v-887h-119z" />
<glyph unicode="j" horiz-adv-x="387" d="M-39 -252h59q72 0 92.5 35t20.5 129v975h119v-975q0 -147 -51 -212t-178 -65h-62v113zM129 1047v172h127v-172h-127z" />
<glyph unicode="k" horiz-adv-x="815" d="M129 0v1343h119v-817l383 361h147l-317 -305l317 -582h-129l-274 500l-127 -123v-377h-119z" />
<glyph unicode="l" horiz-adv-x="387" d="M133 0v1343h119v-1343h-119z" />
<glyph unicode="m" horiz-adv-x="1425" d="M129 0v887h119v-96q88 111 272 110q94 0 145.5 -31.5t82.5 -93.5q80 125 301 125q145 0 200.5 -75.5t55.5 -231.5v-594h-119v584q0 51 -3 75.5t-16.5 60.5t-48.5 51t-94 15q-139 0 -193.5 -74.5t-54.5 -238.5v-473h-119v584q0 51 -3 75.5t-16 60.5t-48 51t-94 15 q-139 0 -193.5 -74.5t-54.5 -238.5v-473h-119z" />
<glyph unicode="n" horiz-adv-x="917" d="M129 0v887h119v-105q92 119 282 119q145 0 206 -76.5t61 -230.5v-594h-119v584q0 45 -4 73.5t-19.5 62.5t-52.5 50t-96 16q-141 0 -199.5 -75.5t-58.5 -237.5v-473h-119z" />
<glyph unicode="o" d="M76 418v51q0 432 356 432t356 -426v-53q0 -199 -87 -314.5t-269 -115.5t-269 115.5t-87 310.5zM197 422q0 -317 235.5 -317.5t235.5 317.5v51q0 154 -50.5 233.5t-185.5 79.5q-133 0 -184 -81.5t-51 -233.5v-49z" />
<glyph unicode="p" horiz-adv-x="917" d="M129 -365v1252h119v-105q90 119 268 119q188 0 256 -106.5t68 -319.5v-53q0 -203 -74 -316.5t-252 -113.5t-266 104v-461h-119zM248 410q0 -152 52 -229t204 -77q125 0 170 81t45 237v51q0 170 -40 241.5t-175 71.5q-141 0 -196.5 -74.5t-59.5 -213.5v-88z" />
<glyph unicode="q" horiz-adv-x="917" d="M76 416v53q0 205 73.5 318.5t252 113.5t266.5 -104v90h118v-1252h-118v474q-92 -117 -269 -117q-188 0 -255.5 105.5t-67.5 318.5zM197 420q0 -170 41 -243t176 -73q145 0 199.5 81t54.5 235v88q-4 139 -57.5 208.5t-196.5 69.5q-125 0 -171 -80.5t-46 -234.5v-51z" />
<glyph unicode="r" horiz-adv-x="530" d="M129 0v887h119v-121q88 133 250 133v-113q-139 0 -194.5 -91t-55.5 -263v-432h-119z" />
<glyph unicode="s" horiz-adv-x="800" d="M53 236l121 30q27 -88 79 -125t159 -37q201 0 200 136q0 72 -45 101.5t-170 64.5q-84 23 -126 38t-89 43.5t-66.5 71.5t-19.5 105q0 104 83 170.5t229 66.5q264 0 321 -201l-125 -38q-31 127 -196 126q-190 0 -191 -118q0 -63 38 -90t163 -60q66 -18 97.5 -28.5t81.5 -33 t73.5 -49t42 -69.5t18.5 -98q0 -123 -92 -186.5t-227 -63.5q-287 0 -359 244z" />
<glyph unicode="t" horiz-adv-x="634" d="M29 772v115h184v270h119v-270h233v-115h-233v-473q0 -115 30.5 -150.5t141.5 -35.5h61v-113h-84q-156 0 -212 62.5t-56 222.5v487h-184z" />
<glyph unicode="u" horiz-adv-x="917" d="M121 299v588h119v-578q0 -45 4 -74.5t20.5 -63.5t53 -50.5t94.5 -16.5q141 0 199.5 76t58.5 238v469h118v-887h-118v104q-94 -113 -283 -112q-145 0 -205.5 76.5t-60.5 230.5z" />
<glyph unicode="v" horiz-adv-x="794" d="M37 887h123l78 -236l159 -493l164 493l78 236h119l-301 -895h-123z" />
<glyph unicode="w" horiz-adv-x="1292" d="M49 887h121l59 -203l148 -506l151 508l62 201h117l59 -201l147 -508l152 510l59 199h117l-270 -895h-117l-209 698l-211 -698h-119z" />
<glyph unicode="x" horiz-adv-x="784" d="M39 0l287 469l-258 418h131l196 -320l191 320h127l-256 -422l288 -465h-131l-227 369l-221 -369h-127z" />
<glyph unicode="y" horiz-adv-x="792" d="M35 887h123l65 -197l174 -518l174 518l66 197h119l-361 -1053q-37 -109 -91 -154t-150 -45h-64v113h62q59 0 86.5 22.5t46.5 79.5l51 150z" />
<glyph unicode="z" horiz-adv-x="802" d="M88 0v113l455 659h-434v115h585v-115l-454 -659h475v-113h-627z" />
<glyph unicode="{" horiz-adv-x="684" d="M70 399v119h100q59 0 82.5 23.5t19.5 76.5l-41 416q-12 133 41.5 190.5t182.5 57.5h135v-119h-135q-57 0 -82 -26.5t-19 -92.5l41 -415q8 -119 -82 -168q92 -49 82 -172l-41 -416q-6 -66 18.5 -92.5t82.5 -26.5h135v-119h-135q-129 0 -182.5 57.5t-41.5 190.5l41 416 q4 53 -19.5 76.5t-82.5 23.5h-100z" />
<glyph unicode="|" horiz-adv-x="512" d="M195 -365v1647h122v-1647h-122z" />
<glyph unicode="}" horiz-adv-x="684" d="M94 -246h135q57 0 82 26.5t19 92.5l-41 416q-8 119 82 168q-92 49 -82 172l41 415q6 66 -18.5 92.5t-82.5 26.5h-135v119h135q129 0 182.5 -57.5t41.5 -190.5l-41 -416q-4 -53 19.5 -76.5t82.5 -23.5h100v-119h-100q-59 0 -82.5 -23.5t-19.5 -76.5l41 -416 q12 -133 -41.5 -190.5t-182.5 -57.5h-135v119z" />
<glyph unicode="~" horiz-adv-x="1024" d="M215 692q12 193 170 193q61 0 147 -52.5t115 -52.5q55 0 58 105l108 -13q-12 -193 -172 -192q-61 0 -146 52t-114 52q-57 0 -59 -104z" />
<glyph unicode="&#xa1;" horiz-adv-x="518" d="M193 0v213l18 729h96l19 -729v-213h-133zM193 1118v164h133v-164h-133z" />
<glyph unicode="&#xa2;" horiz-adv-x="987" d="M137 418v51q0 395 303 426v190h109v-190q244 -25 282 -295l-124 -22q-23 180 -162 204v-673q143 23 168 194l121 -16q-61 -264 -285 -289v-236h-109v234q-303 29 -303 422zM258 422q0 -283 186 -313v673q-106 -14 -146 -92t-40 -219v-49z" />
<glyph unicode="&#xa3;" horiz-adv-x="1036" d="M106 569v109h148q-66 180 -66 287q0 150 91.5 238.5t263.5 88.5q311 0 401 -262l-125 -43q-61 186 -276 187q-109 0 -169.5 -56.5t-60.5 -163.5q0 -23 4.5 -47t13.5 -58t14 -52.5t20.5 -62.5t19.5 -56h371v-109h-336q18 -82 18 -129q0 -190 -123 -323h611v-117h-779v96 q82 84 124 159t42 181q0 47 -22 133h-185z" />
<glyph unicode="&#xa5;" horiz-adv-x="1071" d="M45 1282h133l359 -537l362 537h127l-430 -639v-76h324v-108h-324v-195h324v-108h-324v-156h-123v156h-321v108h321v195h-321v108h321v76z" />
<glyph unicode="&#xa6;" horiz-adv-x="512" d="M195 326h122v-691h-122v691zM195 592v690h122v-690h-122z" />
<glyph unicode="&#xa7;" horiz-adv-x="882" d="M102 236l121 30q27 -90 75 -126t155 -36q193 0 192 136q0 49 -37 83.5t-71.5 48t-130.5 42.5q-25 8 -39 12q-106 33 -168 86t-62 150q0 137 117 190q-117 63 -117 192q0 102 83 170t229 68q264 0 321 -201l-125 -39q-31 127 -196 127q-190 0 -191 -118q0 -63 50 -95 t151 -59q61 -16 90 -25.5t80 -33t76.5 -49t46 -69.5t20.5 -99q0 -143 -110 -181q102 -68 102 -198q0 -123 -88 -186.5t-223 -63.5q-279 0 -351 244zM256 682q0 -63 44 -94t177 -76q92 -29 134 5t42 104q0 61 -49 100t-174 72q-88 25 -131 -12.5t-43 -98.5z" />
<glyph unicode="&#xa8;" horiz-adv-x="1024" d="M291 1008v168h125v-168h-125zM608 1008v168h125v-168h-125z" />
<glyph unicode="&#xa9;" horiz-adv-x="1394" d="M88 637q0 143 26.5 252.5t92 202t188.5 141.5t301 49q180 0 304 -49t188.5 -141.5t91.5 -202t27 -252.5q0 -113 -15.5 -204t-57.5 -176t-108.5 -141.5t-175 -90t-254.5 -33.5q-178 0 -301 49t-188.5 142t-92 202t-26.5 252zM170 637q0 -129 19.5 -222t73.5 -176t163 -126 t270 -43q164 0 273.5 43t163 126t73 176t19.5 222q0 102 -11.5 180t-44 154t-90 125t-154 78.5t-229.5 29.5q-131 0 -227 -29.5t-152.5 -78.5t-90 -125t-45 -154t-11.5 -180zM346 616v52q0 211 80 326.5t272 115.5q150 0 221.5 -72.5t102.5 -216.5l-121 -18 q-27 199 -205 198q-137 0 -188 -86t-51 -247v-52q0 -168 54 -251.5t185 -83.5q100 0 147.5 49t65.5 149l117 -16q-59 -289 -334 -289q-190 0 -268 115.5t-78 326.5z" />
<glyph unicode="&#xaa;" horiz-adv-x="854" d="M119 717q0 147 126 223t369 98v13q0 78 -43 104.5t-139 26.5q-141 0 -188 -82l-113 37q33 70 117 112.5t198 42.5q147 0 213 -58t66 -175v-578h-111v107q-76 -115 -243 -115q-252 0 -252 244zM233 715q0 -135 152 -135q129 0 179 62.5t50 174.5v121q-381 -39 -381 -223z " />
<glyph unicode="&#xab;" horiz-adv-x="831" d="M59 444l228 443h119l-228 -443l228 -444h-119zM422 444l227 443h119l-227 -443l227 -444h-119z" />
<glyph unicode="&#xac;" horiz-adv-x="1060" d="M76 344q0 227 184 297q-184 72 -184 305q0 293 301 336l22 -129q-102 -12 -151 -58t-49 -151q0 -137 78.5 -191.5t228.5 -54.5h49q309 0 309 246q0 104 -47 153.5t-143 61.5l16 125q152 -35 223.5 -117t71.5 -227q0 -227 -186 -299q186 -74 186 -303q0 -293 -301 -336 l-22 133q102 12 151 57.5t49 147.5q0 137 -78.5 191.5t-228.5 54.5h-49q-309 0 -309 -246q0 -104 47 -151.5t143 -59.5l-16 -129q-154 35 -224.5 113.5t-70.5 230.5z" />
<glyph unicode="&#xad;" horiz-adv-x="763" d="M70 469v109h624v-109h-624z" />
<glyph unicode="&#xae;" horiz-adv-x="1394" d="M88 637q0 143 26.5 252.5t92 202t188.5 141.5t301 49q180 0 304 -49t188.5 -141.5t91.5 -202t27 -252.5q0 -113 -15.5 -204t-57.5 -176t-108.5 -141.5t-175 -90t-254.5 -33.5q-178 0 -301 49t-188.5 142t-92 202t-26.5 252zM170 637q0 -129 19.5 -222t73.5 -176t163 -126 t270 -43q164 0 273.5 43t163 126t73 176t19.5 222q0 102 -11.5 180t-44 154t-90 125t-154 78.5t-229.5 29.5q-131 0 -227 -29.5t-152.5 -78.5t-90 -125t-45 -154t-11.5 -180zM410 215v864h335q260 0 261 -231q0 -88 -48.5 -147.5t-123.5 -84.5l188 -401h-113l-182 389h-215 v-389h-102zM512 705h238q72 0 110.5 37.5t38.5 101.5q0 137 -149 137h-238v-276z" />
<glyph unicode="&#xaf;" horiz-adv-x="1024" d="M270 1008v108h486v-108h-486z" />
<glyph unicode="&#x2c9;" horiz-adv-x="1024" d="M270 1008v108h486v-108h-486z" />
<glyph unicode="&#xb0;" horiz-adv-x="884" d="M117 856v47q0 389 325.5 389t325.5 -383v-49q0 -178 -80 -282.5t-246 -104.5q-164 0 -244.5 103.5t-80.5 279.5zM233 860q0 -279 209 -278q211 0 211 278v47q0 137 -44 206t-167 69q-119 0 -164 -70t-45 -207v-45z" />
<glyph unicode="&#xb1;" horiz-adv-x="1441" d="M29 772v115h184v149q0 158 61.5 232.5t227.5 74.5h22v-112h-20q-59 0 -95 -14.5t-52.5 -46t-20.5 -61.5t-4 -83v-139h368v149q0 158 61.5 232.5t227.5 74.5h64v-112h-62q-59 0 -95 -14.5t-52.5 -46t-20.5 -61.5t-4 -83v-139h234v-115h-234v-772h-119v772h-368v-772h-119 v772h-184zM1188 0v1343h119v-1343h-119z" />
<glyph unicode="&#xb2;" horiz-adv-x="886" d="M141 385v64q0 129 65.5 209.5t227.5 185.5q115 74 148.5 119t33.5 112q0 106 -161 107q-170 0 -199 -121l-115 26q35 102 106.5 151.5t207.5 49.5q274 0 274 -207q0 -102 -46 -164.5t-181 -148.5q-141 -92 -189.5 -146.5t-54.5 -132.5h473v-104h-590z" />
<glyph unicode="&#xb3;" horiz-adv-x="903" d="M141 614l113 19q10 -92 58 -120t145 -28q100 0 144 33t44 133v17q0 88 -51 117.5t-150 29.5h-129v105h129q92 0 134.5 30.5t42.5 100.5v12q0 68 -37 93.5t-129 25.5q-94 0 -138.5 -29t-60.5 -88l-115 29q72 195 314 194q152 0 215 -56t63 -167v-12q0 -57 -29.5 -106.5 t-82.5 -74.5q137 -37 137 -202v-19q0 -270 -301 -270q-150 0 -224 57t-92 176z" />
<glyph unicode="&#xb4;" horiz-adv-x="1024" d="M403 1008l271 254h151l-297 -254h-125z" />
<glyph unicode="&#xb5;" horiz-adv-x="929" d="M131 -365v1252h119v-580q0 -45 4 -74.5t20.5 -63.5t53.5 -50.5t94 -16.5q141 0 199.5 77t58.5 239v469h119v-887h-119v104q-94 -113 -268 -112q-123 0 -162 57v-414h-119z" />
<glyph unicode="&#x3bc;" horiz-adv-x="929" d="M131 -365v1252h119v-580q0 -45 4 -74.5t20.5 -63.5t53.5 -50.5t94 -16.5q141 0 199.5 77t58.5 239v469h119v-887h-119v104q-94 -113 -268 -112q-123 0 -162 57v-414h-119z" />
<glyph unicode="&#xb6;" horiz-adv-x="1044" d="M109 975q0 170 88 238.5t268 68.5h430v-1282h-123v676h-219v-676h-123v676q-321 14 -321 299z" />
<glyph unicode="&#xb7;" horiz-adv-x="395" d="M131 571v168h133v-168h-133z" />
<glyph unicode="&#x2219;" horiz-adv-x="395" d="M131 571v168h133v-168h-133z" />
<glyph unicode="&#xb8;" horiz-adv-x="1024" d="M307 -279l94 33q20 -72 117 -71q59 0 86 19t27 69q0 88 -107 88q-47 0 -78 -17l-77 37l86 162h94l-62 -115q31 6 60 6q80 0 129 -38.5t49 -122.5q0 -86 -55.5 -129t-151.5 -43q-168 -1 -211 122z" />
<glyph unicode="&#xb9;" horiz-adv-x="692" d="M123 1176v106h328v-897h-111v791h-217z" />
<glyph unicode="&#xba;" horiz-adv-x="884" d="M117 856v47q0 389 325.5 389t325.5 -383v-49q0 -178 -80 -282.5t-246 -104.5q-164 0 -244.5 103.5t-80.5 279.5zM233 860q0 -279 209 -278q211 0 211 278v47q0 137 -44 206t-167 69q-119 0 -164 -70t-45 -207v-45z" />
<glyph unicode="&#xbb;" horiz-adv-x="831" d="M63 0l228 444l-228 443h119l228 -443l-228 -444h-119zM426 0l227 444l-227 443h119l227 -443l-227 -444h-119z" />
<glyph unicode="&#xbc;" horiz-adv-x="1562" d="M61 1176v106h328v-897h-110v791h-218zM395 0l563 1282h115l-563 -1282h-115zM801 205v106l428 586h119v-586h151v-106h-151v-205h-111v205h-436zM926 311h311v428z" />
<glyph unicode="&#xbd;" horiz-adv-x="1656" d="M61 1176v106h328v-897h-110v791h-218zM395 0l563 1282h115l-563 -1282h-115zM973 0v63q0 129 65.5 210t227.5 186q115 74 148.5 119t33.5 112q0 106 -162 107q-170 0 -199 -121l-114 26q35 102 106.5 151.5t206.5 49.5q274 0 275 -207q0 -102 -46.5 -164.5t-181.5 -148.5 q-141 -92 -189 -146.5t-54 -132.5h473v-104h-590z" />
<glyph unicode="&#xbe;" horiz-adv-x="1753" d="M80 614l113 19q10 -92 58 -120t144 -28q100 0 144.5 33t44.5 133v17q0 88 -50.5 116.5t-150.5 28.5h-129v109h129q94 0 135 29.5t41 99.5v12q0 68 -37 93.5t-129 25.5q-94 0 -138 -29t-60 -88l-115 29q72 195 313 194q152 0 215.5 -56t63.5 -167v-12q0 -57 -30 -106.5 t-83 -74.5q137 -37 137 -202v-19q0 -270 -301 -270q-150 0 -223.5 57t-91.5 176zM586 0l563 1282h115l-564 -1282h-114zM991 205v106l428 586h119v-586h152v-106h-152v-205h-111v205h-436zM1116 311h311v428z" />
<glyph unicode="&#xbf;" horiz-adv-x="948" d="M82 289q0 66 29.5 129t56.5 95t86 93q51 55 76.5 86t51.5 87.5t26 115.5v47h120v-43q0 -63 -14 -116.5t-48 -102.5t-56.5 -74.5t-67.5 -73.5q-47 -47 -69.5 -74.5t-44 -71.5t-21.5 -91q0 -186 252 -186q121 0 191.5 42t101.5 146l135 -18q-92 -289 -428 -289 q-184 0 -280.5 79t-96.5 220zM397 1118v164h133v-164h-133z" />
<glyph unicode="&#xc0;" horiz-adv-x="1075" d="M47 0l428 1292h127l428 -1292h-125l-117 352h-505l-117 -352h-119zM180 1628h152l270 -254h-125zM319 463h433l-217 653z" />
<glyph unicode="&#xc1;" horiz-adv-x="1075" d="M47 0l428 1292h127l428 -1292h-125l-117 352h-505l-117 -352h-119zM319 463h433l-217 653zM477 1374l271 254h151l-297 -254h-125z" />
<glyph unicode="&#xc2;" horiz-adv-x="1075" d="M47 0l428 1292h127l428 -1292h-125l-117 352h-505l-117 -352h-119zM254 1374l209 254h149l209 -254h-121l-165 178l-164 -178h-117zM319 463h433l-217 653z" />
<glyph unicode="&#xc3;" horiz-adv-x="1075" d="M47 0l428 1292h127l428 -1292h-125l-117 352h-505l-117 -352h-119zM250 1386q12 193 153 193q61 0 149.5 -52t111.5 -52q55 0 57 104l106 -12q-6 -96 -41.5 -144.5t-113.5 -48.5q-61 0 -149.5 52.5t-108.5 52.5q-57 0 -60 -105zM319 463h433l-217 653z" />
<glyph unicode="&#xc4;" horiz-adv-x="1075" d="M47 0l428 1292h127l428 -1292h-125l-117 352h-505l-117 -352h-119zM315 1374v168h125v-168h-125zM319 463h433l-217 653zM633 1374v168h125v-168h-125z" />
<glyph unicode="&#xc5;" horiz-adv-x="1075" d="M47 0l408 1233q-86 33 -86 153q0 168 168 168t168 -168q0 -117 -84 -153l409 -1233h-125l-117 352h-505l-117 -352h-119zM319 463h433l-217 653zM449 1386.5q0 -92.5 88 -92.5t88 92.5t-88 92.5t-88 -92.5z" />
<glyph unicode="&#xc6;" horiz-adv-x="1683" d="M0 0l735 1282h828v-119h-639v-395h577v-117h-577v-534h639v-117h-762v352h-469l-201 -352h-131zM397 467h404v700z" />
<glyph unicode="&#xc7;" horiz-adv-x="1097" d="M88 604v74q0 293 110.5 453.5t376.5 160.5q207 0 304.5 -95t136.5 -286l-137 -18q-18 135 -88 208t-218 73q-205 0 -282.5 -127t-77.5 -367v-74q0 -250 81 -373.5t279 -123.5q152 0 222.5 70.5t95.5 209.5l133 -18q-80 -379 -457 -379h-8l-35 -66q31 6 60 6 q80 0 129 -38.5t49 -122.5q0 -86 -55.5 -129t-151.5 -43q-168 0 -211 122l94 33q20 -72 117 -71q59 0 86 19t27 69q0 88 -107 88q-47 0 -78 -17l-77 37l63 119q-209 31 -295 187.5t-86 418.5z" />
<glyph unicode="&#xc8;" horiz-adv-x="1032" d="M150 0v1282h761v-119h-639v-395h578v-119h-578v-532h639v-117h-761zM203 1629h151l271 -254h-125z" />
<glyph unicode="&#xc9;" horiz-adv-x="1032" d="M150 0v1282h761v-119h-639v-395h578v-119h-578v-532h639v-117h-761zM407 1375l271 254h151l-297 -254h-125z" />
<glyph unicode="&#xca;" horiz-adv-x="1032" d="M150 0v1282h761v-119h-639v-395h578v-119h-578v-532h639v-117h-761zM233 1375l209 254h150l209 -254h-121l-166 178l-164 -178h-117z" />
<glyph unicode="&#xcb;" horiz-adv-x="1032" d="M150 0v1282h761v-119h-639v-395h578v-119h-578v-532h639v-117h-761zM295 1375v168h125v-168h-125zM612 1375v168h125v-168h-125z" />
<glyph unicode="&#xcc;" horiz-adv-x="430" d="M154 0v1282h122v-1282h-122zM-147 1629h151l271 -254h-125z" />
<glyph unicode="&#xcd;" horiz-adv-x="430" d="M154 0v1282h122v-1282h-122zM149 1375l271 254h151l-297 -254h-125z" />
<glyph unicode="&#xce;" horiz-adv-x="430" d="M154 0v1282h122v-1282h-122zM-68 1375l209 254h150l209 -254h-121l-166 178l-164 -178h-117z" />
<glyph unicode="&#xcf;" horiz-adv-x="430" d="M154 0v1282h122v-1282h-122zM-6 1375v168h125v-168h-125zM311 1375v168h125v-168h-125z" />
<glyph unicode="&#xd0;" horiz-adv-x="1101" d="M0 608v109h150v565h376q125 0 216.5 -36t142.5 -91t80.5 -139t39 -160t9.5 -174v-80q0 -602 -486 -602h-378v608h-150zM272 117h256q199 0 280 120.5t81 366.5v78q0 258 -80 369.5t-283 111.5h-254v-446h271v-109h-271v-491z" />
<glyph unicode="&#xd1;" horiz-adv-x="1165" d="M150 0v1282h176l571 -1036v1036h119v-1282h-119l-629 1141v-1141h-118zM295 1387q12 193 154 192q61 0 149 -52t111 -52q55 0 57 104l107 -12q-6 -96 -42 -144t-114 -48q-61 0 -149 52t-109 52q-57 0 -59 -104z" />
<glyph unicode="&#xd2;" horiz-adv-x="1148" d="M88 604v74q0 295 107.5 454.5t377.5 159.5q272 0 380 -156.5t108 -451.5v-78q0 -614 -488 -614q-485 0 -485 612zM213 606q0 -498 360 -497q362 0 363 495v78q0 117 -14.5 200t-53.5 152.5t-111.5 104.5t-183.5 35q-209 0 -284.5 -126t-75.5 -368v-74zM260 1629h151 l271 -254h-125z" />
<glyph unicode="&#xd3;" horiz-adv-x="1148" d="M88 604v74q0 295 107.5 454.5t377.5 159.5q272 0 380 -156.5t108 -451.5v-78q0 -614 -488 -614q-485 0 -485 612zM213 606q0 -498 360 -497q362 0 363 495v78q0 117 -14.5 200t-53.5 152.5t-111.5 104.5t-183.5 35q-209 0 -284.5 -126t-75.5 -368v-74zM464 1375l271 254 h151l-297 -254h-125z" />
<glyph unicode="&#xd4;" horiz-adv-x="1148" d="M88 604v74q0 295 107.5 454.5t377.5 159.5q272 0 380 -156.5t108 -451.5v-78q0 -614 -488 -614q-485 0 -485 612zM213 606q0 -498 360 -497q362 0 363 495v78q0 117 -14.5 200t-53.5 152.5t-111.5 104.5t-183.5 35q-209 0 -284.5 -126t-75.5 -368v-74zM290 1375l209 254 h150l209 -254h-121l-166 178l-164 -178h-117z" />
<glyph unicode="&#xd5;" horiz-adv-x="1148" d="M88 604v74q0 295 107.5 454.5t377.5 159.5q272 0 380 -156.5t108 -451.5v-78q0 -614 -488 -614q-485 0 -485 612zM213 606q0 -498 360 -497q362 0 363 495v78q0 117 -14.5 200t-53.5 152.5t-111.5 104.5t-183.5 35q-209 0 -284.5 -126t-75.5 -368v-74zM286 1387 q12 193 154 192q61 0 149 -52t111 -52q55 0 57 104l107 -12q-6 -96 -42 -144t-114 -48q-61 0 -149 52t-109 52q-57 0 -59 -104z" />
<glyph unicode="&#xd6;" horiz-adv-x="1148" d="M88 604v74q0 295 107.5 454.5t377.5 159.5q272 0 380 -156.5t108 -451.5v-78q0 -614 -488 -614q-485 0 -485 612zM213 606q0 -498 360 -497q362 0 363 495v78q0 117 -14.5 200t-53.5 152.5t-111.5 104.5t-183.5 35q-209 0 -284.5 -126t-75.5 -368v-74zM352 1375v168h125 v-168h-125zM669 1375v168h125v-168h-125z" />
<glyph unicode="&#xd7;" horiz-adv-x="1030" d="M150 342l292 293l-292 295l71 71l293 -294l295 294l72 -71l-295 -295l295 -293l-72 -72l-295 293l-293 -293z" />
<glyph unicode="&#xd8;" horiz-adv-x="1148" d="M88 -61l123 204q-123 154 -123 461v74q0 295 107.5 454.5t377.5 159.5q180 0 287 -71l74 122h127l-119 -196q119 -143 119 -463v-78q0 -614 -488 -614q-170 0 -280 76l-78 -129h-127zM213 606q0 -238 68 -354l520 864q-82 57 -228 58q-209 0 -284.5 -126t-75.5 -368v-74z M350 172q82 -63 223 -63q362 0 363 495v78q0 250 -64 356z" />
<glyph unicode="&#xd9;" horiz-adv-x="1153" d="M143 436v846h123v-844q0 -193 63.5 -265.5t245.5 -72.5q184 0 250 73t66 263v846h119v-844q0 -248 -102.5 -351t-332.5 -103q-227 0 -329.5 103t-102.5 349zM262 1629h151l271 -254h-125z" />
<glyph unicode="&#xda;" horiz-adv-x="1153" d="M143 436v846h123v-844q0 -193 63.5 -265.5t245.5 -72.5q184 0 250 73t66 263v846h119v-844q0 -248 -102.5 -351t-332.5 -103q-227 0 -329.5 103t-102.5 349zM466 1375l271 254h151l-297 -254h-125z" />
<glyph unicode="&#xdb;" horiz-adv-x="1153" d="M143 436v846h123v-844q0 -193 63.5 -265.5t245.5 -72.5q184 0 250 73t66 263v846h119v-844q0 -248 -102.5 -351t-332.5 -103q-227 0 -329.5 103t-102.5 349zM292 1375l209 254h150l209 -254h-121l-166 178l-164 -178h-117z" />
<glyph unicode="&#xdc;" horiz-adv-x="1153" d="M143 436v846h123v-844q0 -193 63.5 -265.5t245.5 -72.5q184 0 250 73t66 263v846h119v-844q0 -248 -102.5 -351t-332.5 -103q-227 0 -329.5 103t-102.5 349zM354 1375v168h125v-168h-125zM671 1375v168h125v-168h-125z" />
<glyph unicode="&#xdd;" horiz-adv-x="1071" d="M25 1282h133l379 -594l383 594h127l-451 -700v-582h-123v582zM426 1375l271 254h151l-297 -254h-125z" />
<glyph unicode="&#xde;" horiz-adv-x="1083" d="M150 0v1282h122v-246h369q377 0 377 -350q0 -170 -108.5 -264t-268.5 -94h-369v-328h-122zM272 444h377q117 0 181.5 62.5t64.5 175.5q0 111 -60.5 173.5t-185.5 62.5h-377v-474z" />
<glyph unicode="&#xdf;" horiz-adv-x="1042" d="M129 0v958q0 385 393 385q209 0 292 -86t83 -247q0 -209 -137 -273q201 -57 201 -327q0 -195 -73 -306.5t-259 -111.5q-145 0 -225 63.5t-103 210.5l121 19q10 -94 57 -137.5t150 -43.5q121 0 166 73t45 224q0 141 -56.5 201t-199.5 60h-90v118h69q213 0 213 217 q0 109 -51 171.5t-201 62.5q-276 0 -276 -266v-965h-119z" />
<glyph unicode="&#xe0;" horiz-adv-x="856" d="M76 262q0 164 138 246t409 108v17q0 86 -49.5 119.5t-153.5 33.5q-150 0 -205 -98l-127 41q39 78 129 125t217 47q164 0 234.5 -64.5t70.5 -195.5v-641h-116v119q-82 -127 -273 -127q-274 0 -274 270zM115 1262h151l271 -254h-125zM197 260q0 -158 170 -158 q143 0 199.5 73t56.5 198v137q-426 -43 -426 -250z" />
<glyph unicode="&#xe1;" horiz-adv-x="856" d="M76 262q0 164 138 246t409 108v17q0 86 -49.5 119.5t-153.5 33.5q-150 0 -205 -98l-127 41q39 78 129 125t217 47q164 0 234.5 -64.5t70.5 -195.5v-641h-116v119q-82 -127 -273 -127q-274 0 -274 270zM197 260q0 -158 170 -158q143 0 199.5 73t56.5 198v137 q-426 -43 -426 -250zM319 1008l271 254h151l-297 -254h-125z" />
<glyph unicode="&#xe2;" horiz-adv-x="856" d="M76 262q0 164 138 246t409 108v17q0 86 -49.5 119.5t-153.5 33.5q-150 0 -205 -98l-127 41q39 78 129 125t217 47q164 0 234.5 -64.5t70.5 -195.5v-641h-116v119q-82 -127 -273 -127q-274 0 -274 270zM145 1008l209 254h150l209 -254h-121l-166 178l-164 -178h-117z M197 260q0 -158 170 -158q143 0 199.5 73t56.5 198v137q-426 -43 -426 -250z" />
<glyph unicode="&#xe3;" horiz-adv-x="856" d="M76 262q0 164 138 246t409 108v17q0 86 -49.5 119.5t-153.5 33.5q-150 0 -205 -98l-127 41q39 78 129 125t217 47q164 0 234.5 -64.5t70.5 -195.5v-641h-116v119q-82 -127 -273 -127q-274 0 -274 270zM141 1020q12 193 154 192q61 0 149 -52t111 -52q55 0 57 104l107 -12 q-6 -96 -42 -144t-114 -48q-61 0 -149 52t-109 52q-57 0 -59 -104zM197 260q0 -158 170 -158q143 0 199.5 73t56.5 198v137q-426 -43 -426 -250z" />
<glyph unicode="&#xe4;" horiz-adv-x="856" d="M76 262q0 164 138 246t409 108v17q0 86 -49.5 119.5t-153.5 33.5q-150 0 -205 -98l-127 41q39 78 129 125t217 47q164 0 234.5 -64.5t70.5 -195.5v-641h-116v119q-82 -127 -273 -127q-274 0 -274 270zM197 260q0 -158 170 -158q143 0 199.5 73t56.5 198v137 q-426 -43 -426 -250zM207 1008v168h125v-168h-125zM524 1008v168h125v-168h-125z" />
<glyph unicode="&#xe5;" horiz-adv-x="856" d="M76 262q0 164 138 246t409 108v17q0 86 -49.5 119.5t-153.5 33.5q-150 0 -205 -98l-127 41q39 78 129 125t217 47q164 0 234.5 -64.5t70.5 -195.5v-641h-116v119q-82 -127 -273 -127q-274 0 -274 270zM197 260q0 -158 170 -158q143 0 199.5 73t56.5 198v137 q-426 -43 -426 -250zM260 1175.5q0 167.5 168 167.5t168 -167.5t-168 -167.5t-168 167.5zM340 1175.5q0 -92.5 88 -92.5t88 92.5t-88 92.5t-88 -92.5z" />
<glyph unicode="&#xe6;" horiz-adv-x="1388" d="M76 262q0 162 137 242t410 106v23q0 86 -49.5 119.5t-153.5 33.5q-150 0 -205 -98l-127 41q39 78 129 125t217 47q211 0 271 -117q88 117 272 117q188 0 263 -102.5t75 -294.5v-90h-576q0 -309 238 -310q102 0 150.5 37t64.5 113l119 -29q-29 -106 -112 -169.5 t-222 -63.5q-223 0 -305 168q-53 -90 -124 -129t-198 -39q-274 0 -274 270zM197 260q0 -158 170 -158q143 0 199.5 73t56.5 198v131q-205 -20 -315.5 -75.5t-110.5 -168.5zM739 524h455q-4 137 -50 200.5t-167 63.5q-222 0 -238 -264z" />
<glyph unicode="&#xe7;" horiz-adv-x="862" d="M76 418v51q0 432 358 432q293 0 336 -301l-125 -22q-12 102 -61 155t-152 53q-135 0 -185 -80.5t-50 -234.5v-49q0 -317 235 -318q193 0 219 199l121 -16q-66 -289 -332 -295l-34 -66q31 6 59 6q80 0 129 -38.5t49 -122.5q0 -86 -55.5 -129t-151.5 -43q-168 0 -211 122 l94 33q20 -72 117 -71q59 0 86 19t27 69q0 88 -107 88q-47 0 -77 -17l-78 37l63 119q-274 43 -274 420z" />
<glyph unicode="&#xe8;" horiz-adv-x="839" d="M76 418v51q0 432 356 432q188 0 263 -102.5t75 -294.5v-90h-575q0 -309 237 -310q102 0 150.5 37t64.5 113l119 -29q-29 -106 -112 -169.5t-222 -63.5q-356 0 -356 426zM106 1262h152l270 -254h-125zM195 524h454q-4 137 -50 200.5t-167 63.5q-221 0 -237 -264z" />
<glyph unicode="&#xe9;" horiz-adv-x="839" d="M76 418v51q0 432 356 432q188 0 263 -102.5t75 -294.5v-90h-575q0 -309 237 -310q102 0 150.5 37t64.5 113l119 -29q-29 -106 -112 -169.5t-222 -63.5q-356 0 -356 426zM195 524h454q-4 137 -50 200.5t-167 63.5q-221 0 -237 -264zM311 1008l271 254h151l-297 -254h-125z " />
<glyph unicode="&#xea;" horiz-adv-x="839" d="M76 418v51q0 432 356 432q188 0 263 -102.5t75 -294.5v-90h-575q0 -309 237 -310q102 0 150.5 37t64.5 113l119 -29q-29 -106 -112 -169.5t-222 -63.5q-356 0 -356 426zM137 1008l209 254h150l209 -254h-121l-166 178l-164 -178h-117zM195 524h454q-4 137 -50 200.5 t-167 63.5q-221 0 -237 -264z" />
<glyph unicode="&#xeb;" horiz-adv-x="839" d="M76 418v51q0 432 356 432q188 0 263 -102.5t75 -294.5v-90h-575q0 -309 237 -310q102 0 150.5 37t64.5 113l119 -29q-29 -106 -112 -169.5t-222 -63.5q-356 0 -356 426zM195 524h454q-4 137 -50 200.5t-167 63.5q-221 0 -237 -264zM199 1008v168h125v-168h-125zM516 1008 v168h125v-168h-125z" />
<glyph unicode="&#xec;" horiz-adv-x="387" d="M-121 1262h148l219 -254h-121zM133 0v887h119v-887h-119z" />
<glyph unicode="&#xed;" horiz-adv-x="387" d="M133 0v887h119v-887h-119zM137 1008l217 254h148l-244 -254h-121z" />
<glyph unicode="&#xee;" horiz-adv-x="387" d="M133 0v887h119v-887h-119zM-93 1008l209 254h150l209 -254h-121l-166 178l-164 -178h-117z" />
<glyph unicode="&#xef;" horiz-adv-x="387" d="M133 0v887h119v-887h-119zM-31 1008v168h125v-168h-125zM286 1008v168h125v-168h-125z" />
<glyph unicode="&#xf0;" d="M76 418v51q0 432 338 432q137 0 209 -70q-18 115 -80 216l-236 -72v115l170 51q-61 72 -125 114l84 88q104 -76 168 -163l184 57v-115l-122 -39q123 -238 122 -632v-29q0 -199 -87 -314.5t-269 -115.5t-269 115.5t-87 310.5zM197 422q0 -317 235.5 -317.5t235.5 317.5v51 q0 154 -50.5 233.5t-185.5 79.5q-133 0 -184 -81.5t-51 -233.5v-49z" />
<glyph unicode="&#xf1;" horiz-adv-x="913" d="M109 0v887h118v-105q92 119 283 119q145 0 205.5 -76.5t60.5 -230.5v-594h-119v584q0 45 -4 73.5t-19.5 62.5t-52 50t-96.5 16q-141 0 -199.5 -75.5t-58.5 -237.5v-473h-118zM170 1020q12 193 154 192q61 0 149 -52t111 -52q55 0 57 104l107 -12q-6 -96 -42 -144 t-114 -48q-61 0 -149.5 52t-108.5 52q-57 0 -60 -104z" />
<glyph unicode="&#xf2;" d="M76 418v51q0 432 356 432t356 -426v-53q0 -199 -87 -314.5t-269 -115.5t-269 115.5t-87 310.5zM197 422q0 -317 235.5 -317.5t235.5 317.5v51q0 154 -50.5 233.5t-185.5 79.5q-133 0 -184 -81.5t-51 -233.5v-49zM117 1262h151l271 -254h-125z" />
<glyph unicode="&#xf3;" d="M76 418v51q0 432 356 432t356 -426v-53q0 -199 -87 -314.5t-269 -115.5t-269 115.5t-87 310.5zM197 422q0 -317 235.5 -317.5t235.5 317.5v51q0 154 -50.5 233.5t-185.5 79.5q-133 0 -184 -81.5t-51 -233.5v-49zM321 1008l271 254h151l-297 -254h-125z" />
<glyph unicode="&#xf4;" d="M76 418v51q0 432 356 432t356 -426v-53q0 -199 -87 -314.5t-269 -115.5t-269 115.5t-87 310.5zM197 422q0 -317 235.5 -317.5t235.5 317.5v51q0 154 -50.5 233.5t-185.5 79.5q-133 0 -184 -81.5t-51 -233.5v-49zM147 1008l209 254h150l209 -254h-121l-166 178l-164 -178 h-117z" />
<glyph unicode="&#xf5;" d="M76 418v51q0 432 356 432t356 -426v-53q0 -199 -87 -314.5t-269 -115.5t-269 115.5t-87 310.5zM197 422q0 -317 235.5 -317.5t235.5 317.5v51q0 154 -50.5 233.5t-185.5 79.5q-133 0 -184 -81.5t-51 -233.5v-49zM143 1020q12 193 154 192q61 0 149 -52t111 -52 q55 0 57 104l107 -12q-6 -96 -42 -144t-114 -48q-61 0 -149 52t-109 52q-57 0 -59 -104z" />
<glyph unicode="&#xf6;" d="M76 418v51q0 432 356 432t356 -426v-53q0 -199 -87 -314.5t-269 -115.5t-269 115.5t-87 310.5zM197 422q0 -317 235.5 -317.5t235.5 317.5v51q0 154 -50.5 233.5t-185.5 79.5q-133 0 -184 -81.5t-51 -233.5v-49zM209 1008v168h125v-168h-125zM526 1008v168h125v-168h-125 z" />
<glyph unicode="&#xf7;" horiz-adv-x="1030" d="M111 582v108h809v-108h-809zM449 213v168h133v-168h-133zM449 891v168h133v-168h-133z" />
<glyph unicode="&#xf8;" d="M76 418v51q0 432 356 432q102 0 176 -35l58 97h118l-90 -160q94 -106 94 -328v-53q0 -199 -87 -314.5t-269 -115.5q-102 0 -180 39l-53 -92h-119l90 157q-94 113 -94 322zM197 422q0 -139 39 -215l317 555q-45 25 -121 24q-133 0 -184 -81.5t-51 -233.5v-49zM305 133 q51 -29 127 -29q236 0 236 318v51q0 154 -41 223z" />
<glyph unicode="&#xf9;" horiz-adv-x="913" d="M119 299v588h119v-578q0 -45 4 -74.5t20.5 -63.5t53 -50.5t94.5 -16.5q141 0 199.5 76t58.5 238v469h118v-887h-118v104q-94 -113 -283 -112q-145 0 -205.5 76.5t-60.5 230.5zM143 1262h152l270 -254h-125z" />
<glyph unicode="&#xfa;" horiz-adv-x="913" d="M119 299v588h119v-578q0 -45 4 -74.5t20.5 -63.5t53 -50.5t94.5 -16.5q141 0 199.5 76t58.5 238v469h118v-887h-118v104q-94 -113 -283 -112q-145 0 -205.5 76.5t-60.5 230.5zM348 1008l270 254h152l-297 -254h-125z" />
<glyph unicode="&#xfb;" horiz-adv-x="913" d="M119 299v588h119v-578q0 -45 4 -74.5t20.5 -63.5t53 -50.5t94.5 -16.5q141 0 199.5 76t58.5 238v469h118v-887h-118v104q-94 -113 -283 -112q-145 0 -205.5 76.5t-60.5 230.5zM174 1008l209 254h149l209 -254h-120l-166 178l-164 -178h-117z" />
<glyph unicode="&#xfc;" horiz-adv-x="913" d="M119 299v588h119v-578q0 -45 4 -74.5t20.5 -63.5t53 -50.5t94.5 -16.5q141 0 199.5 76t58.5 238v469h118v-887h-118v104q-94 -113 -283 -112q-145 0 -205.5 76.5t-60.5 230.5zM236 1008v168h124v-168h-124zM553 1008v168h125v-168h-125z" />
<glyph unicode="&#xfd;" horiz-adv-x="788" d="M35 887h123l65 -197l174 -518l174 518l66 197h119l-361 -1053q-37 -109 -91 -154t-150 -45h-64v113h62q59 0 86.5 22.5t46.5 79.5l51 150zM285 1008l270 254h152l-297 -254h-125z" />
<glyph unicode="&#xfe;" horiz-adv-x="917" d="M129 -365v1708h119v-561q90 119 268 119q188 0 256 -106.5t68 -319.5v-53q0 -203 -74 -316.5t-252 -113.5t-266 104v-461h-119zM248 410q0 -152 52 -229t204 -77q125 0 170 81t45 237v51q0 170 -40 241.5t-175 71.5q-141 0 -196.5 -74.5t-59.5 -213.5v-88z" />
<glyph unicode="&#xff;" horiz-adv-x="788" d="M35 887h123l65 -197l174 -518l174 518l66 197h119l-361 -1053q-37 -109 -91 -154t-150 -45h-64v113h62q59 0 86.5 22.5t46.5 79.5l51 150zM172 1008v168h125v-168h-125zM489 1008v168h125v-168h-125z" />
<glyph unicode="&#x131;" horiz-adv-x="387" d="M133 0v887h119v-887h-119z" />
<glyph unicode="&#x152;" horiz-adv-x="1818" d="M88 604v74q0 295 107.5 454.5t377.5 159.5q258 0 371 -153v143h754v-119h-639v-395h577v-117h-577v-534h639v-117h-754v162q-117 -170 -371 -170q-485 0 -485 612zM213 606q0 -498 360 -497q362 0 363 495v78q0 117 -14.5 200t-53.5 152.5t-111.5 104.5t-183.5 35 q-209 0 -284.5 -126t-75.5 -368v-74z" />
<glyph unicode="&#x153;" horiz-adv-x="1433" d="M76 418v51q0 432 356 432q215 0 297 -153q82 154 293 153q188 0 263 -102.5t75 -294.5v-90h-574q0 -309 236 -310q102 0 150.5 37t64.5 113l119 -29q-29 -106 -112 -169.5t-222 -63.5q-217 0 -297 155q-86 -156 -293 -155q-182 0 -269 115.5t-87 310.5zM197 422 q0 -317 235.5 -317.5t235.5 317.5v51q0 154 -50.5 233.5t-185.5 79.5q-133 0 -184 -81.5t-51 -233.5v-49zM786 524h453q-4 137 -50 200.5t-167 63.5t-174.5 -68.5t-61.5 -195.5z" />
<glyph unicode="&#x178;" horiz-adv-x="1071" d="M25 1282h133l379 -594l383 594h127l-451 -700v-582h-123v582zM314 1375v168h125v-168h-125zM631 1375v168h125v-168h-125z" />
<glyph unicode="&#x2c6;" horiz-adv-x="1024" d="M229 1008l209 254h150l209 -254h-121l-166 178l-164 -178h-117z" />
<glyph unicode="&#x2dc;" horiz-adv-x="1024" d="M225 1020q12 193 154 192q61 0 149 -52t111 -52q55 0 57 104l107 -12q-6 -96 -42 -144t-114 -48q-61 0 -149 52t-109 52q-57 0 -59 -104z" />
<glyph unicode="&#x2000;" horiz-adv-x="813" />
<glyph unicode="&#x2001;" horiz-adv-x="1628" />
<glyph unicode="&#x2002;" horiz-adv-x="813" />
<glyph unicode="&#x2003;" horiz-adv-x="1628" />
<glyph unicode="&#x2004;" horiz-adv-x="542" />
<glyph unicode="&#x2005;" horiz-adv-x="405" />
<glyph unicode="&#x2006;" horiz-adv-x="270" />
<glyph unicode="&#x2007;" horiz-adv-x="270" />
<glyph unicode="&#x2008;" horiz-adv-x="202" />
<glyph unicode="&#x2009;" horiz-adv-x="325" />
<glyph unicode="&#x200a;" horiz-adv-x="90" />
<glyph unicode="&#x2010;" horiz-adv-x="763" d="M70 469v109h624v-109h-624z" />
<glyph unicode="&#x2011;" horiz-adv-x="763" d="M70 469v109h624v-109h-624z" />
<glyph unicode="&#x2012;" horiz-adv-x="763" d="M70 469v109h624v-109h-624z" />
<glyph unicode="&#x2013;" horiz-adv-x="1128" d="M70 469v109h989v-109h-989z" />
<glyph unicode="&#x2014;" horiz-adv-x="1474" d="M70 469v109h1335v-109h-1335z" />
<glyph unicode="&#x2018;" horiz-adv-x="436" d="M152 948v158q0 86 24.5 128t108.5 48v-65q-43 -8 -53.5 -29t-10.5 -82h64v-158h-133z" />
<glyph unicode="&#x2019;" horiz-adv-x="436" d="M152 948v66q43 8 53 28.5t10 81.5h-63v158h133v-158q0 -86 -24.5 -128t-108.5 -48z" />
<glyph unicode="&#x201a;" horiz-adv-x="436" d="M152 0v158h133v-158q0 -86 -24.5 -128t-108.5 -48v65q43 8 53 29t10 82h-63z" />
<glyph unicode="&#x201c;" horiz-adv-x="722" d="M152 948v158q0 86 24.5 128t108.5 48v-65q-43 -8 -53.5 -29t-10.5 -82h64v-158h-133zM438 948v158q0 86 24.5 128t108.5 48v-65q-43 -8 -53 -29t-10 -82h63v-158h-133z" />
<glyph unicode="&#x201d;" horiz-adv-x="722" d="M152 948v66q43 8 53 28.5t10 81.5h-63v158h133v-158q0 -86 -24.5 -128t-108.5 -48zM438 948v66q43 8 53.5 28.5t10.5 81.5h-64v158h133v-158q0 -86 -24.5 -128t-108.5 -48z" />
<glyph unicode="&#x201e;" horiz-adv-x="722" d="M152 0v158h133v-158q0 -86 -24.5 -128t-108.5 -48v65q43 8 53 29t10 82h-63zM438 0v158h133v-158q0 -86 -24.5 -128t-108.5 -48v65q43 8 53.5 29t10.5 82h-64z" />
<glyph unicode="&#x2022;" d="M197 668v49q0 152 51 233.5t184 81.5q135 0 185.5 -80t50.5 -233v-51q0 -317 -235.5 -317t-235.5 317z" />
<glyph unicode="&#x2026;" horiz-adv-x="1087" d="M131 0v168h133v-168h-133zM477 0v168h133v-168h-133zM823 0v168h133v-168h-133z" />
<glyph unicode="&#x202f;" horiz-adv-x="325" />
<glyph unicode="&#x2039;" horiz-adv-x="468" d="M59 444l228 443h119l-228 -443l228 -444h-119z" />
<glyph unicode="&#x203a;" horiz-adv-x="468" d="M63 0l228 444l-228 443h119l228 -443l-228 -444h-119z" />
<glyph unicode="&#x205f;" horiz-adv-x="405" />
<glyph unicode="&#x20ac;" horiz-adv-x="1263" d="M115 432v109h178v194h-178v109h186q23 217 123 332.5t309 115.5q199 0 289 -97t119 -284l-137 -18q-14 135 -76 209t-197 74q-154 0 -223.5 -84t-85.5 -248h328v-109h-334v-194h334v-109h-326q18 -164 89 -245t218 -81q141 0 202.5 71t82.5 212l131 -18 q-35 -184 -129 -281.5t-291 -97.5q-205 0 -304 113.5t-122 326.5h-186z" />
<glyph unicode="&#x2122;" horiz-adv-x="1335" d="M59 1188v94h465v-94h-184v-547h-104v547h-177zM600 641v641h131l182 -512l187 512h131v-641h-105v455l-163 -455h-97l-164 455v-455h-102z" />
<glyph unicode="&#xe000;" horiz-adv-x="885" d="M0 885h885v-885h-885v885z" />
<glyph unicode="&#xfb01;" horiz-adv-x="954" d="M29 772v115h184v149q0 158 61.5 232.5t227.5 74.5h63v-112h-61q-59 0 -95 -14.5t-52.5 -46t-20.5 -61.5t-4 -83v-139h233v-115h-233v-772h-119v772h-184zM696 1047v172h127v-172h-127zM700 0v887h119v-887h-119z" />
<glyph unicode="&#xfb02;" horiz-adv-x="954" d="M29 772v115h184v149q0 158 61.5 232.5t227.5 74.5h63v-112h-61q-59 0 -95 -14.5t-52.5 -46t-20.5 -61.5t-4 -83v-139h233v-115h-233v-772h-119v772h-184zM700 0v1343h119v-1343h-119z" />
<glyph unicode="&#xfb03;" horiz-adv-x="1583" d="M1325 1047v172h127v-172h-127zM1329 0v887h119v-887h-119zM627 772v115h184v149q0 158 61.5 232.5t227.5 74.5h63v-112h-61q-59 0 -95 -14.5t-52.5 -46t-20.5 -61.5t-4 -83v-139h233v-115h-233v-772h-119v772h-184zM29 772v115h184v149q0 158 61.5 232.5t227.5 74.5h63 v-112h-61q-59 0 -95 -14.5t-52.5 -46t-20.5 -61.5t-4 -83v-139h233v-115h-233v-772h-119v772h-184z" />
<glyph unicode="&#xfb04;" horiz-adv-x="1583" d="M1329 0v1343h119v-1343h-119zM627 772v115h184v149q0 158 61.5 232.5t227.5 74.5h63v-112h-61q-59 0 -95 -14.5t-52.5 -46t-20.5 -61.5t-4 -83v-139h233v-115h-233v-772h-119v772h-184zM29 772v115h184v149q0 158 61.5 232.5t227.5 74.5h63v-112h-61q-59 0 -95 -14.5 t-52.5 -46t-20.5 -61.5t-4 -83v-139h233v-115h-233v-772h-119v772h-184z" />
</font>
</defs>
</svg>
